<svg width="72" height="72" viewBox="0 0 72 72" fill="none" xmlns="http://www.w3.org/2000/svg">
<path d="M51.0254 62.9849L21.0254 63.0134C14.4254 63.0194 9.02087 57.6254 9.01337 51.0254L8.98487 21.0254C8.97887 14.4254 14.3729 9.02087 20.9729 9.01337L50.9729 8.98487C57.5729 8.97887 62.9774 14.3729 62.9849 20.9729L63.0134 50.9729C63.0209 57.5744 57.6254 62.9789 51.0254 62.9849Z" fill="url(#paint0_radial_66_170)"/>
<path d="M51.0254 62.9849L21.0254 63.0134C14.4254 63.0194 9.02087 57.6254 9.01337 51.0254L8.98487 21.0254C8.97887 14.4254 14.3729 9.02087 20.9729 9.01337L50.9729 8.98487C57.5729 8.97887 62.9774 14.3729 62.9849 20.9729L63.0134 50.9729C63.0209 57.5744 57.6254 62.9789 51.0254 62.9849Z" fill="url(#paint1_radial_66_170)"/>
<path d="M36 46.5C30.2115 46.5 25.5 41.79 25.5 36C25.5 30.21 30.2115 25.5 36 25.5C41.7885 25.5 46.5 30.21 46.5 36C46.5 41.79 41.7885 46.5 36 46.5ZM36 28.5C31.8645 28.5 28.5 31.8645 28.5 36C28.5 40.1355 31.8645 43.5 36 43.5C40.1355 43.5 43.5 40.1355 43.5 36C43.5 31.8645 40.1355 28.5 36 28.5Z" fill="white"/>
<path d="M47.25 27C48.4926 27 49.5 25.9926 49.5 24.75C49.5 23.5074 48.4926 22.5 47.25 22.5C46.0074 22.5 45 23.5074 45 24.75C45 25.9926 46.0074 27 47.25 27Z" fill="white"/>
<path d="M45 55.5H27C21.2115 55.5 16.5 50.79 16.5 45V27C16.5 21.21 21.2115 16.5 27 16.5H45C50.7885 16.5 55.5 21.21 55.5 27V45C55.5 50.79 50.7885 55.5 45 55.5ZM27 19.5C22.8645 19.5 19.5 22.8645 19.5 27V45C19.5 49.1355 22.8645 52.5 27 52.5H45C49.1355 52.5 52.5 49.1355 52.5 45V27C52.5 22.8645 49.1355 19.5 45 19.5H27Z" fill="white"/>
<defs>
<radialGradient id="paint0_radial_66_170" cx="0" cy="0" r="1" gradientUnits="userSpaceOnUse" gradientTransform="translate(29.0699 63.0524) scale(67.3485)">
<stop stop-color="#FFDD55"/>
<stop offset="0.328" stop-color="#FF543F"/>
<stop offset="0.348" stop-color="#FC5245"/>
<stop offset="0.504" stop-color="#E64771"/>
<stop offset="0.643" stop-color="#D53E91"/>
<stop offset="0.761" stop-color="#CC39A4"/>
<stop offset="0.841" stop-color="#C837AB"/>
</radialGradient>
<radialGradient id="paint1_radial_66_170" cx="0" cy="0" r="1" gradientUnits="userSpaceOnUse" gradientTransform="translate(17.6789 8.31032) scale(44.7195 29.7966)">
<stop stop-color="#4168C9"/>
<stop offset="0.999" stop-color="#4168C9" stop-opacity="0"/>
</radialGradient>
</defs>
</svg>
