<svg width="72" height="72" viewBox="0 0 72 72" fill="none" xmlns="http://www.w3.org/2000/svg">
<path d="M58.1984 39.6584C58.1984 36.1454 55.2884 33.2984 51.7049 33.2984C46.5869 33.0839 41.3474 32.9939 35.9999 33.0014C30.6554 32.9939 25.4159 33.0854 20.2949 33.2984C16.7144 33.2984 13.8044 36.1454 13.8044 39.6584C13.5914 42.4364 13.4924 45.2174 13.4999 48.0014C13.4924 50.7809 13.5899 53.5619 13.8059 56.3429C13.8059 59.8604 16.7129 62.7074 20.2949 62.7074C25.4159 62.9174 30.6554 63.0074 35.9999 62.9999C41.3459 63.0119 46.5869 62.9159 51.7049 62.7074C55.2884 62.7074 58.1984 59.8604 58.1984 56.3429C58.4114 53.5619 58.5119 50.7809 58.4999 48.0014C58.5119 45.2174 58.4114 42.4364 58.1984 39.6584Z" fill="url(#paint0_linear_56_15)"/>
<path opacity="0.05" d="M56.5921 46.9381C56.5921 45.1006 56.0941 43.6261 55.1146 42.5506C54.0886 41.4256 52.6711 40.8571 50.8981 40.8571C49.1686 40.8571 47.7241 41.4421 46.6081 42.5956C46.3441 42.8671 46.1101 43.1596 45.9091 43.4716C45.7831 43.1986 45.6346 42.9466 45.4666 42.7156C44.6671 41.6191 43.4776 41.0401 42.0286 41.0401C41.8201 41.0401 41.6131 41.0566 41.4061 41.0881V37.8646C41.4061 36.8686 40.5946 36.0601 39.5971 36.0601H36.8416C35.8426 36.0601 35.0311 36.8701 35.0311 37.8646V41.4706C34.7731 41.3296 34.4926 41.2291 34.1791 41.2291H31.4476C31.0051 41.2291 30.5986 41.3881 30.2836 41.6536C29.9701 41.3896 29.5636 41.2291 29.1211 41.2291H28.1341C28.1821 41.0656 28.2361 40.9036 28.2361 40.7251V37.8691C28.2361 36.8731 27.4246 36.0631 26.4271 36.0631H16.9906C15.9931 36.0631 15.1831 36.8731 15.1831 37.8691V40.7251C15.1831 41.7211 15.9946 42.5296 16.9906 42.5296H18.3616V57.5746C18.3616 58.5706 19.1731 59.3806 20.1706 59.3806H23.2441C24.2356 59.3806 25.0396 58.5796 25.0501 57.5911C25.1551 57.8131 25.2766 58.0201 25.4176 58.2091C26.0776 59.1001 27.1006 59.5906 28.2961 59.5906C29.0281 59.5906 29.7346 59.4196 30.4411 59.0701C30.7351 59.2681 31.0861 59.3791 31.4521 59.3791H34.1851C34.7161 59.3791 35.1826 59.1406 35.5126 58.7761C35.8441 59.1406 36.3106 59.3791 36.8416 59.3791H39.5971C39.8521 59.3791 40.1041 59.3251 40.3351 59.2216C40.9096 59.4466 41.5336 59.5606 42.1936 59.5606C43.5661 59.5606 44.6986 59.0371 45.4681 58.0501C45.6511 57.8176 45.8116 57.5641 45.9451 57.2881C46.0936 57.5236 46.2601 57.7456 46.4431 57.9541C47.4856 59.1421 48.9541 59.7706 50.6881 59.7706C52.5811 59.7706 54.0646 59.1901 55.0981 58.0456C56.0881 56.9506 56.5906 55.4086 56.5906 53.4646V52.3711C56.5906 52.0666 56.5126 51.7726 56.3716 51.5116C56.5141 51.2506 56.5921 50.9536 56.5921 50.6491V46.9381Z" fill="black"/>
<path d="M21.8086 9H24.9961L27.0511 17.244H27.2506L29.2126 9.0045H32.4331L28.7461 21.0585V30H25.5781V21.4455L21.8086 9ZM32.2876 17.8845C32.2876 16.7085 32.6686 15.768 33.4261 15.0735C34.1821 14.3745 35.1991 14.0235 36.4786 14.0235C37.6456 14.0235 38.5981 14.391 39.3406 15.129C40.0831 15.861 40.4551 16.8105 40.4551 17.97V25.8225C40.4551 27.1215 40.0921 28.1445 39.3631 28.8885C38.6341 29.6295 37.6351 30 36.3526 30C35.1181 30 34.1371 29.6115 33.3916 28.8495C32.6521 28.0875 32.2846 27.0585 32.2846 25.767V17.883H32.2876V17.8845ZM35.1826 26.052C35.1826 26.4645 35.2816 26.793 35.4901 27.021C35.6881 27.246 35.9731 27.36 36.3466 27.36C36.7291 27.36 37.0276 27.2445 37.2526 27.009C37.4761 26.7825 37.5916 26.46 37.5916 26.052V17.769C37.5916 17.439 37.4731 17.1705 37.2451 16.965C37.0186 16.7625 36.7171 16.6575 36.3466 16.6575C36.0031 16.6575 35.7211 16.7625 35.5051 16.965C35.2906 17.1705 35.1826 17.439 35.1826 17.769V26.052ZM50.8771 14.4075V30H48.0646V28.101C47.5456 28.722 47.0071 29.193 46.4431 29.5125C45.8851 29.835 45.3406 30 44.8141 30C44.1616 30 43.6741 29.7765 43.3426 29.322C43.0111 28.872 42.8491 28.1955 42.8491 27.2865V14.4075H45.6601V26.2365C45.6601 26.5905 45.7201 26.8515 45.8401 27.015C45.9526 27.171 46.1506 27.258 46.4101 27.258C46.6216 27.258 46.8826 27.1515 47.1931 26.9355C47.5126 26.724 47.8021 26.4495 48.0646 26.1195V14.4075H50.8771Z" fill="url(#paint1_linear_56_15)"/>
<g opacity="0.07">
<path d="M55.8422 46.9381C55.8422 45.2941 55.4102 43.9876 54.5612 43.0561C53.6852 42.0946 52.4522 41.6071 50.8997 41.6071C49.3802 41.6071 48.1172 42.1156 47.1467 43.1191C46.3127 43.9756 45.8552 45.0601 45.7397 46.3276C45.7157 45.0016 45.4262 43.9306 44.8637 43.1581C44.2112 42.2641 43.2332 41.7901 42.0317 41.7901C41.5697 41.7901 41.1107 41.8846 40.6592 42.0736V37.8631C40.6592 37.2811 40.1837 36.8086 39.6002 36.8086H36.8447C36.2597 36.8086 35.7842 37.2811 35.7842 37.8631V57.5731C35.7842 58.1551 36.2597 58.6291 36.8447 58.6291H39.6002C39.8612 58.6291 40.0997 58.5346 40.2842 58.3786C40.2872 58.3801 40.2902 58.3816 40.2932 58.3831C40.8632 58.6666 41.5037 58.8106 42.1967 58.8106C43.3292 58.8106 44.2592 58.3861 44.8832 57.5866C45.4607 56.8546 45.7547 55.8361 45.7547 54.5596V54.3601C45.8912 55.6021 46.3007 56.6491 47.0102 57.4591C47.9072 58.4806 49.1807 59.0206 50.6927 59.0206C52.3652 59.0206 53.6612 58.5226 54.5462 57.5431C55.4072 56.5891 55.8452 55.2166 55.8452 53.4646V52.3711C55.8452 52.0171 55.6697 51.7021 55.3997 51.5101C55.6697 51.3181 55.8467 51.0046 55.8467 50.6491V46.9381H55.8422ZM40.8212 54.1711C40.8212 54.2716 40.8167 54.3481 40.8092 54.4066C40.7792 54.4006 40.7537 54.3916 40.7282 54.3781C40.7117 54.3691 40.6892 54.3571 40.6607 54.3376V46.2361C40.7057 46.2166 40.7387 46.2091 40.7582 46.2061C40.7837 46.2691 40.8212 46.4146 40.8212 46.6621V54.1711ZM50.6222 46.9171C50.6222 46.5181 50.6717 46.3216 50.6642 46.2766C50.6867 46.2736 50.7227 46.2691 50.7767 46.2691L50.8097 46.1971C50.8112 46.1986 50.9102 46.3606 50.9102 46.9171V47.3281H50.6207L50.6222 46.9171ZM50.9147 52.3711V53.3836C50.9147 53.9506 50.8682 54.2506 50.8412 54.3826C50.8127 54.3931 50.7797 54.4081 50.7377 54.4246C50.7332 54.4156 50.6237 54.1921 50.6237 53.3866V51.7051H51.1532C51.0032 51.8866 50.9147 52.1191 50.9147 52.3711Z" fill="black"/>
<path d="M27.4846 40.7235V37.8675C27.4846 37.2855 27.0091 36.8115 26.4256 36.8115H16.9891C16.4056 36.8115 15.9316 37.2855 15.9316 37.8675V40.7235C15.9316 41.3055 16.4056 41.778 16.9891 41.778H19.1101V57.573C19.1101 58.155 19.5841 58.629 20.1691 58.629H23.2426C23.8261 58.629 24.3016 58.155 24.3016 57.573V41.778H26.4256C27.0091 41.778 27.4846 41.3055 27.4846 40.7235Z" fill="black"/>
<path d="M34.1791 41.9775H31.4476C30.8626 41.9775 30.3871 42.4515 30.3871 43.0335V53.667C30.3211 53.733 30.2521 53.793 30.1786 53.8515V43.0335C30.1786 42.4515 29.7031 41.9775 29.1196 41.9775H26.3881C25.8031 41.9775 25.3276 42.4515 25.3276 43.0335V55.1835C25.3276 56.2725 25.5586 57.138 26.0176 57.762C26.5411 58.4685 27.3286 58.8405 28.2946 58.8405C29.0071 58.8405 29.6986 58.644 30.4036 58.2405C30.4576 58.2105 30.5101 58.179 30.5626 58.1475C30.7516 58.437 31.0786 58.629 31.4506 58.629H34.1836C34.7671 58.629 35.2426 58.155 35.2426 57.5715L35.2381 43.0335C35.2381 42.4515 34.7626 41.9775 34.1791 41.9775Z" fill="black"/>
</g>
<path d="M36.8413 57.8791H39.5968C39.7663 57.8791 39.9058 57.7441 39.9058 57.5731V57.2236C40.1338 57.4246 40.3753 57.5866 40.6243 57.7111C41.0938 57.9451 41.6188 58.0606 42.1933 58.0606C43.0948 58.0606 43.8013 57.7486 44.2903 57.1216C44.7613 56.5246 44.9998 55.6636 44.9998 54.5596L44.9968 46.4986C44.9968 45.2506 44.7463 44.2741 44.2543 43.5991C43.7428 42.8971 42.9898 42.5401 42.0283 42.5401C41.5543 42.5401 41.0803 42.6691 40.6168 42.9241C40.3708 43.0636 40.1308 43.2346 39.9058 43.4386V37.8631C39.9058 37.6951 39.7663 37.5586 39.5968 37.5586H36.8413C36.6688 37.5586 36.5308 37.6951 36.5308 37.8631V57.5731C36.5308 57.7441 36.6703 57.8791 36.8413 57.8791ZM39.9103 45.8686C40.0423 45.7366 40.1683 45.6421 40.2973 45.5791C40.7458 45.3541 41.1418 45.4591 41.3428 45.7261C41.4913 45.9241 41.5708 46.2466 41.5708 46.6636V54.1711C41.5708 54.6526 41.4778 54.8746 41.3923 54.9811C41.3578 55.0291 41.2498 55.1656 40.9033 55.1656C40.7203 55.1656 40.5508 55.1281 40.3843 55.0456C40.2358 54.9691 40.0753 54.8491 39.9103 54.6826V45.8686Z" fill="white"/>
<path d="M55.0905 53.4644V52.3709C55.0905 52.1999 54.954 52.0649 54.783 52.0649H51.975C51.804 52.0649 51.6645 52.1999 51.6645 52.3709V53.3834C51.6645 54.4454 51.5115 54.7784 51.456 54.8654C51.3345 55.0289 51.0975 55.1114 50.7525 55.1114C50.3235 55.1114 50.175 54.9449 50.0955 54.8129C49.9965 54.6539 49.8735 54.2744 49.8735 53.3864V50.9549H54.783C54.954 50.9549 55.092 50.8184 55.0935 50.6489L55.092 46.9379C55.092 45.4874 54.726 44.3504 54.006 43.5614C53.2785 42.7634 52.233 42.3569 50.898 42.3569C49.593 42.3569 48.507 42.7904 47.682 43.6424C46.854 44.4914 46.437 45.5984 46.437 46.9364V53.4644C46.437 54.9329 46.8195 56.1074 47.5695 56.9639C48.327 57.8264 49.38 58.2704 50.688 58.2704C52.14 58.2704 53.25 57.8549 53.985 57.0404C54.717 56.2304 55.0905 55.0304 55.0905 53.4644ZM49.872 46.9169C49.872 46.2374 49.9935 45.9254 50.0895 45.7889C50.2245 45.6059 50.448 45.5189 50.7765 45.5189C51.0915 45.5189 51.3075 45.6029 51.435 45.7814C51.537 45.9344 51.6615 46.2479 51.6615 46.9169V48.0779H49.872V46.9169Z" fill="white"/>
<path d="M23.5516 57.573V41.028H26.4256C26.5981 41.028 26.7346 40.89 26.7346 40.7235V37.8675C26.7346 37.6995 26.5966 37.5615 26.4256 37.5615H16.9891C16.8196 37.5615 16.6816 37.6995 16.6816 37.8675V40.7235C16.6816 40.89 16.8196 41.028 16.9891 41.028H19.8601V57.573C19.8601 57.7395 19.9981 57.879 20.1691 57.879H23.2426C23.4136 57.879 23.5516 57.7395 23.5516 57.573Z" fill="white"/>
<path d="M34.4881 43.0335C34.4881 42.8655 34.3501 42.7275 34.1791 42.7275H31.4476C31.2751 42.7275 31.1371 42.8655 31.1371 43.0335V53.958C30.9286 54.207 30.6916 54.423 30.4276 54.5955C30.1021 54.816 29.9221 54.849 29.8441 54.849C29.6116 54.849 29.5561 54.774 29.5366 54.7485C29.4946 54.69 29.4286 54.5415 29.4286 54.1755V43.0335C29.4286 42.8655 29.2906 42.7275 29.1196 42.7275H26.3881C26.2156 42.7275 26.0776 42.8655 26.0776 43.0335V55.1835C26.0776 56.1105 26.2621 56.829 26.6191 57.315C26.9986 57.8265 27.5626 58.0905 28.2946 58.0905C28.8706 58.0905 29.4391 57.927 30.0346 57.5865C30.4126 57.3735 30.7771 57.096 31.1416 56.7465V57.573C31.1416 57.7395 31.2796 57.879 31.4506 57.879H34.1836C34.3546 57.879 34.4926 57.7395 34.4926 57.573L34.4881 57.5715V43.0335Z" fill="white"/>
<defs>
<linearGradient id="paint0_linear_56_15" x1="11.1314" y1="28.8719" x2="75.8549" y2="78.6599" gradientUnits="userSpaceOnUse">
<stop stop-color="#F52537"/>
<stop offset="0.293" stop-color="#F32536"/>
<stop offset="0.465" stop-color="#EA2434"/>
<stop offset="0.605" stop-color="#DC2231"/>
<stop offset="0.729" stop-color="#C8202C"/>
<stop offset="0.841" stop-color="#AE1E25"/>
<stop offset="0.944" stop-color="#8F1A1D"/>
<stop offset="1" stop-color="#7A1818"/>
</linearGradient>
<linearGradient id="paint1_linear_56_15" x1="23.4451" y1="9.3165" x2="53.3176" y2="35.3595" gradientUnits="userSpaceOnUse">
<stop stop-color="#4C4C4C"/>
<stop offset="1" stop-color="#343434"/>
</linearGradient>
</defs>
</svg>
