<svg width="72" height="72" viewBox="0 0 72 72" fill="none" xmlns="http://www.w3.org/2000/svg">
<path d="M45.4499 42L55.5749 33.225L58.4999 33.525L47.8499 42.675L50.9999 56.625L48.5249 55.125L45.4499 42ZM40.1249 25.575L37.2749 18.825L38.3999 15.975L42.5249 25.8L40.1249 25.575ZM22.0499 50.475L31.4999 44.775L40.9499 50.55L38.4749 39.75L46.7999 32.55L35.8499 31.575L31.4999 21.375L27.1499 31.5L16.1999 32.475L24.5249 39.75L22.0499 50.475ZM18.8249 54.9L22.1999 40.5L11.0249 30.825L25.7249 29.55L31.4999 15.975L37.2749 29.55L51.9749 30.825L40.7999 40.5L44.1749 54.9L31.4999 47.25L18.8249 54.9Z" fill="#9E7B2F"/>
</svg>
