<svg width="72" height="72" viewBox="0 0 72 72" fill="none" xmlns="http://www.w3.org/2000/svg">
<path d="M56.9996 45V23.55L40.0496 11.7L23.0996 23.55V32.7H20.9996V22.575L40.0496 9L59.0996 22.575V45H56.9996ZM41.9246 25.725H44.1746V23.475H41.9246V25.725ZM35.9246 25.725H38.1746V23.475H35.9246V25.725ZM41.9246 31.725H44.1746V29.475H41.9246V31.725ZM35.9246 31.725H38.1746V29.475H35.9246V31.725ZM18.6746 56.1L41.9246 63L59.9246 57.45C59.9246 56.4 59.6794 55.6625 59.1889 55.2375C58.6989 54.8125 58.1441 54.6 57.5246 54.6H43.5656C42.3216 54.6 41.1496 54.55 40.0496 54.45C38.9496 54.35 37.8246 54.1 36.6746 53.7L30.2246 51.6L31.0496 49.5L37.1246 51.75C38.1246 52.15 39.2496 52.375 40.4996 52.425C41.7496 52.475 43.4246 52.5 45.5246 52.5C45.5246 51.45 45.3496 50.625 44.9996 50.025C44.6496 49.425 44.1246 49 43.4246 48.75L26.2496 42.45C26.0996 42.4 25.9621 42.3625 25.8371 42.3375C25.7121 42.3125 25.5746 42.3 25.4246 42.3H18.6746V56.1ZM8.47461 62.1V40.2H25.3361C25.5951 40.2 25.8646 40.23 26.1446 40.29C26.4246 40.35 26.6846 40.42 26.9246 40.5L44.1746 46.8C45.0746 47.15 45.8746 47.7875 46.5746 48.7125C47.2746 49.6375 47.6246 50.9 47.6246 52.5H57.5246C59.1246 52.5 60.2871 52.9875 61.0121 53.9625C61.7371 54.9375 62.0996 56.15 62.0996 57.6V59.1L42.0746 65.25L18.6746 58.35V62.1H8.47461ZM10.5746 60H16.5746V42.3H10.5746V60Z" fill="#9E7B2F"/>
</svg>
