<svg width="72" height="72" viewBox="0 0 72 72" fill="none" xmlns="http://www.w3.org/2000/svg">
<path d="M36.0004 49.5C38.9504 49.5 41.4379 48.4875 43.4629 46.4625C45.4879 44.4375 46.5004 41.95 46.5004 39C46.5004 36.05 45.4879 33.5625 43.4629 31.5375C41.4379 29.5125 38.9504 28.5 36.0004 28.5C33.0504 28.5 30.5629 29.5125 28.5379 31.5375C26.5129 33.5625 25.5004 36.05 25.5004 39C25.5004 41.95 26.5129 44.4375 28.5379 46.4625C30.5629 48.4875 33.0504 49.5 36.0004 49.5ZM36.0004 47.4C33.6004 47.4 31.6004 46.6 30.0004 45C28.4004 43.4 27.6004 41.4 27.6004 39C27.6004 36.6 28.4004 34.6 30.0004 33C31.6004 31.4 33.6004 30.6 36.0004 30.6C38.4004 30.6 40.4004 31.4 42.0004 33C43.6004 34.6 44.4004 36.6 44.4004 39C44.4004 41.4 43.6004 43.4 42.0004 45C40.4004 46.6 38.4004 47.4 36.0004 47.4ZM14.4004 59.1C13.1004 59.1 12.0254 58.675 11.1754 57.825C10.3254 56.975 9.90039 55.9 9.90039 54.6V23.4C9.90039 22.1 10.3254 21.025 11.1754 20.175C12.0254 19.325 13.1004 18.9 14.4004 18.9H23.1004L28.6504 12.9H43.3504L48.9004 18.9H57.6004C58.9004 18.9 59.9754 19.325 60.8254 20.175C61.6754 21.025 62.1004 22.1 62.1004 23.4V54.6C62.1004 55.9 61.6754 56.975 60.8254 57.825C59.9754 58.675 58.9004 59.1 57.6004 59.1H14.4004ZM14.4004 57H57.6004C58.3004 57 58.8754 56.775 59.3254 56.325C59.7754 55.875 60.0004 55.3 60.0004 54.6V23.4C60.0004 22.7 59.7754 22.125 59.3254 21.675C58.8754 21.225 58.3004 21 57.6004 21H48.0004L42.4504 15H29.5504L24.0004 21H14.4004C13.7004 21 13.1254 21.225 12.6754 21.675C12.2254 22.125 12.0004 22.7 12.0004 23.4V54.6C12.0004 55.3 12.2254 55.875 12.6754 56.325C13.1254 56.775 13.7004 57 14.4004 57Z" fill="#9E7B2F"/>
</svg>
