<svg width="72" height="72" viewBox="0 0 72 72" fill="none" xmlns="http://www.w3.org/2000/svg">
<path d="M13.9504 56.1C12.8004 56.1 11.8379 55.7125 11.0629 54.9375C10.2879 54.1625 9.90039 53.2 9.90039 52.05V20.4C9.90039 19.25 10.3629 18.2125 11.2879 17.2875C12.2129 16.3625 13.2504 15.9 14.4004 15.9H28.4254L34.4254 21.9H57.6004C58.4504 21.9 59.2004 22.0875 59.8504 22.4625C60.5004 22.8375 61.0254 23.35 61.4254 24H33.6004L27.6004 18H14.4004C13.7004 18 13.1254 18.225 12.6754 18.675C12.2254 19.125 12.0004 19.7 12.0004 20.4V51.6C12.0004 52.15 12.1379 52.6 12.4129 52.95C12.6879 53.3 13.0504 53.6 13.5004 53.85L20.1754 31.5H68.0254L61.5004 53.25C61.2504 54.1 60.7629 54.7875 60.0379 55.3125C59.3129 55.8375 58.5004 56.1 57.6004 56.1H13.9504ZM15.6754 54H59.1004L65.1754 33.6H21.7504L15.6754 54Z" fill="#9E7B2F"/>
</svg>
