<svg width="72" height="72" viewBox="0 0 72 72" fill="none" xmlns="http://www.w3.org/2000/svg">
<path d="M27.6004 36L34.5754 29.025L27.8254 22.275L24.3004 25.8L22.8004 24.3L26.3254 20.775L19.7254 14.175L12.7504 21.15L27.6004 36ZM50.7754 59.175L57.7504 52.2L51.1504 45.6L47.6254 49.125L46.1254 47.625L49.6504 44.1L42.9754 37.425L36.0004 44.4L50.7754 59.175ZM21.3754 59.1H12.9004V50.625L26.1004 37.425L9.90039 21.15L19.7254 11.325L36.0754 27.6L50.1004 13.575C50.3504 13.325 50.6004 13.15 50.8504 13.05C51.1004 12.95 51.3754 12.9 51.6754 12.9C51.9754 12.9 52.2504 12.95 52.5004 13.05C52.7504 13.15 53.0004 13.325 53.2504 13.575L58.4254 18.975C58.6754 19.225 58.8379 19.475 58.9129 19.725C58.9879 19.975 59.0254 20.25 59.0254 20.55C59.0254 20.85 58.9879 21.1125 58.9129 21.3375C58.8379 21.5625 58.6754 21.8 58.4254 22.05L44.5504 36L60.6754 52.275L50.8504 62.1L34.5754 45.9L21.3754 59.1ZM15.0004 57H20.4754L49.9504 27.525L44.4754 22.05L15.0004 51.525V57ZM47.2504 24.75L44.4754 22.05L49.9504 27.525L47.2504 24.75Z" fill="#9E7B2F"/>
</svg>
