<svg width="24" height="24" viewBox="0 0 24 24" fill="none" xmlns="http://www.w3.org/2000/svg">
<path d="M12.0033 21C10.7588 21 9.58867 20.7638 8.493 20.2915C7.3975 19.8192 6.4445 19.1782 5.634 18.3685C4.8235 17.5588 4.18192 16.6067 3.70925 15.512C3.23642 14.4175 3 13.2479 3 12.0033C3 10.7588 3.23625 9.58867 3.70875 8.493C4.18125 7.3975 4.8225 6.4445 5.6325 5.634C6.4425 4.8235 7.395 4.18192 8.49 3.70925C9.585 3.23642 10.755 3 12 3C13.0235 3 13.9918 3.15833 14.905 3.475C15.8183 3.79167 16.6513 4.23333 17.4038 4.8L16.6845 5.54425C16.0257 5.05442 15.3008 4.67458 14.51 4.40475C13.7193 4.13492 12.8827 4 12 4C9.78333 4 7.89583 4.77917 6.3375 6.3375C4.77917 7.89583 4 9.78333 4 12C4 14.2167 4.77917 16.1042 6.3375 17.6625C7.89583 19.2208 9.78333 20 12 20C14.2167 20 16.1042 19.2208 17.6625 17.6625C19.2208 16.1042 20 14.2167 20 12C20 11.5975 19.9705 11.2027 19.9115 10.8155C19.8525 10.4285 19.7641 10.0522 19.6462 9.6865L20.4443 8.86925C20.6276 9.36408 20.766 9.87183 20.8595 10.3925C20.9532 10.913 21 11.4488 21 12C21 13.245 20.7638 14.415 20.2915 15.51C19.8192 16.605 19.1782 17.5575 18.3685 18.3675C17.5588 19.1775 16.6067 19.8188 15.512 20.2913C14.4175 20.7638 13.2479 21 12.0033 21ZM10.5615 15.9078L7.00375 12.35L7.7115 11.6423L10.5615 14.4923L20.2922 4.75575L21 5.4635L10.5615 15.9078Z" fill="#9E7B2F"/>
</svg>
