<svg width="72" height="72" viewBox="0 0 72 72" fill="none" xmlns="http://www.w3.org/2000/svg">
<path d="M47.2504 48.75L48.7504 47.25L37.0504 35.5485V21H34.9504V36.45L47.2504 48.75ZM36.0131 62.1C32.4046 62.1 29.0114 61.4153 25.8334 60.0458C22.6554 58.6763 19.8911 56.8175 17.5406 54.4695C15.1896 52.1215 13.3286 49.3608 11.9576 46.1873C10.5861 43.0133 9.90039 39.6218 9.90039 36.0128C9.90039 32.4043 10.5851 29.011 11.9546 25.833C13.3241 22.655 15.1829 19.8908 17.5309 17.5403C19.8789 15.1893 22.6396 13.3283 25.8131 11.9573C28.9871 10.5858 32.3786 9.90002 35.9876 9.90002C39.5961 9.90002 42.9894 10.5848 46.1674 11.9543C49.3454 13.3238 52.1096 15.1825 54.4601 17.5305C56.8111 19.8785 58.6721 22.6393 60.0431 25.8128C61.4146 28.9868 62.1004 32.3783 62.1004 35.9873C62.1004 39.5958 61.4156 42.989 60.0461 46.167C58.6766 49.345 56.8179 52.1093 54.4699 54.4598C52.1219 56.8108 49.3611 58.6718 46.1876 60.0428C43.0136 61.4143 39.6221 62.1 36.0131 62.1ZM36.0004 60C42.6504 60 48.3129 57.6625 52.9879 52.9875C57.6629 48.3125 60.0004 42.65 60.0004 36C60.0004 29.35 57.6629 23.6875 52.9879 19.0125C48.3129 14.3375 42.6504 12 36.0004 12C29.3504 12 23.6879 14.3375 19.0129 19.0125C14.3379 23.6875 12.0004 29.35 12.0004 36C12.0004 42.65 14.3379 48.3125 19.0129 52.9875C23.6879 57.6625 29.3504 60 36.0004 60Z" fill="#9E7B2F"/>
</svg>
