<svg width="96" height="96" viewBox="0 0 96 96" fill="none" xmlns="http://www.w3.org/2000/svg">
<path d="M48.0002 82.6001C40.3335 80.2001 33.9502 75.4668 28.8502 68.4001C23.7502 61.3334 21.2002 53.3334 21.2002 44.4001V23.6001L48.0002 13.6001L74.8002 23.6001V44.4001C74.8002 53.3334 72.2502 61.3334 67.1502 68.4001C62.0502 75.4668 55.6669 80.2001 48.0002 82.6001ZM48.0002 79.6001C54.9335 77.4001 60.6669 73.0001 65.2002 66.4001C69.7335 59.8001 72.0002 52.4668 72.0002 44.4001V25.5001L48.0002 16.6001L24.0002 25.5001V44.4001C24.0002 52.4668 26.2669 59.8001 30.8002 66.4001C35.3335 73.0001 41.0669 77.4001 48.0002 79.6001ZM40.2002 62.2001H55.8002C56.6502 62.2001 57.3629 61.9124 57.9382 61.3371C58.5129 60.7624 58.8002 60.0501 58.8002 59.2001V47.6001C58.8002 46.7501 58.5129 46.0374 57.9382 45.4621C57.3629 44.8874 56.6502 44.6001 55.8002 44.6001H54.9002V40.6001C54.9002 38.6668 54.2502 37.0501 52.9502 35.7501C51.6502 34.4501 50.0335 33.8001 48.1002 33.8001C46.1669 33.8001 44.5502 34.4501 43.2502 35.7501C41.9502 37.0501 41.3002 38.6668 41.3002 40.6001V44.6001H40.2002C39.3502 44.6001 38.6379 44.8874 38.0632 45.4621C37.4879 46.0374 37.2002 46.7501 37.2002 47.6001V59.2001C37.2002 60.0501 37.4879 60.7624 38.0632 61.3371C38.6379 61.9124 39.3502 62.2001 40.2002 62.2001ZM44.1002 44.6001V40.6001C44.1002 39.4668 44.4835 38.5168 45.2502 37.7501C46.0169 36.9834 46.9669 36.6001 48.1002 36.6001C49.2335 36.6001 50.1835 36.9834 50.9502 37.7501C51.7169 38.5168 52.1002 39.4668 52.1002 40.6001V44.6001H44.1002Z" fill="#9E7B2F"/>
</svg>
