<svg width="44" height="44" viewBox="0 0 44 44" fill="none" xmlns="http://www.w3.org/2000/svg">
<path d="M22.0002 0.23999C9.98231 0.23999 0.240234 9.98207 0.240234 22C0.240234 26.0025 1.33979 29.7407 3.22523 32.9625L0.427734 43.405L11.3552 40.9675C14.504 42.7377 18.1308 43.76 22.0002 43.76C34.0182 43.76 43.7602 34.0179 43.7602 22C43.7602 9.98207 34.0182 0.23999 22.0002 0.23999ZM22.0002 1.51999C33.2668 1.51999 42.4802 10.7334 42.4802 22C42.4802 33.2665 33.2668 42.48 22.0002 42.48C18.1641 42.48 14.6283 41.4531 11.5627 39.6125L2.21773 41.69L4.60023 32.78C2.63543 29.644 1.52023 25.9744 1.52023 22C1.52023 10.7334 10.7337 1.51999 22.0002 1.51999ZM14.0652 11.1825C13.6787 11.1825 13.0577 11.324 12.5277 11.9C12.0068 12.476 10.5227 13.8611 10.5227 16.6925C10.5227 19.5136 12.5747 22.2487 12.8627 22.625C13.1507 23.0115 16.8345 28.9985 22.6777 31.3C27.5213 33.2072 28.5116 32.8285 29.5727 32.73C30.6236 32.6391 32.9703 31.3439 33.4477 30.005C33.9252 28.6648 33.9249 27.5132 33.7777 27.27C33.6318 27.037 33.2562 26.8955 32.6802 26.6075C32.1042 26.3195 29.2802 24.9269 28.7502 24.7375C28.228 24.548 27.8416 24.449 27.4652 25.025C27.0787 25.601 25.9845 26.8962 25.6427 27.2725C25.3112 27.659 24.9787 27.703 24.4027 27.415C23.8267 27.127 21.9729 26.5247 19.7802 24.565C18.074 23.0456 16.923 21.1659 16.5902 20.5925C16.2574 20.019 16.5547 19.703 16.8427 19.415C17.1039 19.1641 17.4172 18.7503 17.7052 18.4175C17.983 18.0757 18.0833 17.8415 18.2727 17.455C18.4711 17.0787 18.3711 16.738 18.2277 16.45C18.0844 16.162 16.9697 13.3228 16.4577 12.19C16.0277 11.2377 15.5762 11.2102 15.1627 11.2C14.8274 11.1821 14.4416 11.1825 14.0652 11.1825Z" fill="white"/>
</svg>
