<svg width="56" height="56" viewBox="0 0 56 56" fill="none" xmlns="http://www.w3.org/2000/svg">
<path d="M8.5166 46.4333V16.8H17.8499V7.46667H38.1499V26.1333H47.4833V46.4333H31.8499V37.1H24.1499V46.4333H8.5166ZM10.1499 44.8H17.8499V37.1H10.1499V44.8ZM10.1499 35.4667H17.8499V27.7667H10.1499V35.4667ZM10.1499 26.1333H17.8499V18.4333H10.1499V26.1333ZM19.4833 35.4667H27.1833V27.7667H19.4833V35.4667ZM19.4833 26.1333H27.1833V18.4333H19.4833V26.1333ZM19.4833 16.8H27.1833V9.10001H19.4833V16.8ZM28.8166 35.4667H36.5166V27.7667H28.8166V35.4667ZM28.8166 26.1333H36.5166V18.4333H28.8166V26.1333ZM28.8166 16.8H36.5166V9.10001H28.8166V16.8ZM38.1499 44.8H45.8499V37.1H38.1499V44.8ZM38.1499 35.4667H45.8499V27.7667H38.1499V35.4667Z" fill="#9E7B2F"/>
</svg>
