<svg width="56" height="56" viewBox="0 0 56 56" fill="none" xmlns="http://www.w3.org/2000/svg">
<path d="M12.3666 45.9667V24.7917L7.75827 28.35L6.7666 27.0667L12.3666 22.75V16.9167H13.9999V21.4667L27.9999 10.7917L49.2333 27.0667L48.2416 28.35L43.6333 24.7917V45.9667H12.3666ZM13.9999 44.3333H24.4999V32.6667H31.4999V44.3333H41.9999V23.5667L27.9999 12.8917L13.9999 23.5667V44.3333ZM12.3666 14C12.3666 12.7555 12.7458 11.6861 13.5041 10.7917C14.2624 9.89721 15.4388 9.44999 17.0333 9.44999C18.161 9.44999 18.9485 9.16805 19.3958 8.60416C19.843 8.04027 20.0666 7.34999 20.0666 6.53333H21.6999C21.6999 7.77777 21.3208 8.84721 20.5624 9.74166C19.8041 10.6361 18.6277 11.0833 17.0333 11.0833C15.9055 11.0833 15.118 11.3653 14.6708 11.9292C14.2235 12.493 13.9999 13.1833 13.9999 14H12.3666Z" fill="#9E7B2F"/>
</svg>
