<svg width="264" height="108" viewBox="0 0 264 108" fill="none" xmlns="http://www.w3.org/2000/svg">
<path fill-rule="evenodd" clip-rule="evenodd" d="M124.223 1.3337C110.7 3.04613 98.4728 12.0537 92.787 24.4916C84.974 41.5828 90.0813 61.9353 104.988 73.1148C113.213 79.2828 122.798 82.0314 133.034 81.1575C147.645 79.9097 160.584 70.598 166.426 57.1277C170.247 48.3182 170.697 37.4786 167.619 28.4163C162.632 13.7375 149.658 3.20528 134.244 1.32233C130.697 0.888971 127.708 0.892415 124.223 1.3337ZM137.161 3.34755C142.538 4.43991 146.654 6.16336 151.176 9.21514C162.311 16.7304 168.927 30.0075 168.166 43.3118C167.55 54.0797 162.316 64.3008 153.927 71.1192C150.036 74.2809 143.924 77.3967 139.081 78.6875C135.943 79.5236 135.054 79.6083 129.406 79.6093C123.692 79.6104 122.905 79.5336 119.73 78.6651C115.768 77.5814 110.962 75.4118 107.766 73.2643C105.132 71.494 100.693 67.2968 98.6766 64.6698C92.7006 56.8824 89.8353 47.0222 90.818 37.6247C92.6146 20.4432 104.736 6.95533 121.631 3.33997C125.806 2.44638 132.742 2.44983 137.161 3.34755ZM131.998 25.7431C131.998 26.3866 132.228 26.4321 135.478 26.4321C138.176 26.4321 138.934 26.5337 138.848 26.8837C138.786 27.1321 137.65 30.3781 136.322 34.0969L133.909 40.858L131.173 33.112C129.668 28.8517 128.315 25.4896 128.167 25.6408C127.868 25.9457 121.285 44.2257 121.285 44.751C121.285 44.9333 121.619 45.0325 122.028 44.9722C122.658 44.8785 123.154 43.7941 125.309 37.8001C126.705 33.916 127.94 30.5056 128.053 30.2214C128.17 29.9276 129.061 31.9335 130.121 34.8719C131.145 37.7139 132.394 41.1705 132.896 42.5532C133.397 43.936 133.887 44.9874 133.985 44.8899C134.083 44.7924 135.373 41.3358 136.852 37.2086C139.42 30.0406 139.559 29.7508 139.946 30.7381C140.777 32.8553 143.401 40.3675 143.401 40.6289C143.401 40.7781 142.623 40.9004 141.673 40.9004C140.06 40.9004 139.945 40.9579 139.945 41.7616C139.945 42.588 140.033 42.6228 142.105 42.627L144.265 42.6307L146.426 48.7415C147.615 52.1023 148.586 54.9684 148.586 55.1104C148.585 55.2523 146.252 55.3687 143.401 55.3687H138.218V56.2299V57.0911H144.61C148.126 57.0911 151.003 57.0326 151.003 56.9613C151.003 56.89 150.148 54.4679 149.103 51.5794C148.057 48.6909 147.202 46.2513 147.202 46.1583C147.202 46.0652 149.329 48.487 151.93 51.5401C156.03 56.355 156.79 57.0911 157.66 57.0911H158.663L157.625 55.7993C157.053 55.089 154.332 51.8722 151.577 48.6513L146.568 42.7951L148.259 42.216C151.956 40.95 154.07 38.2875 154.374 34.5144C154.686 30.6458 152.867 27.45 149.451 25.864C147.799 25.0972 147.364 25.0607 139.859 25.0576C132.227 25.0542 131.998 25.0741 131.998 25.7431ZM99.2859 25.8923C99.3902 26.1637 101.906 33.1781 104.876 41.4802C107.846 49.7819 110.382 56.6829 110.511 56.8152C110.64 56.9478 111.986 53.5815 113.501 49.3344L116.257 41.6121L118.439 47.7153C119.64 51.072 120.913 54.5936 121.268 55.541L121.914 57.2634L122.319 56.2299C123.321 53.679 128.888 37.9854 128.888 37.7122C128.888 37.5448 128.544 37.4573 128.124 37.5176C127.464 37.613 127.008 38.6182 124.757 44.9481C123.325 48.9744 122.059 52.2684 121.942 52.2684C121.826 52.2684 120.56 48.9744 119.13 44.9481C117.699 40.9221 116.394 37.6843 116.229 37.7535C116.064 37.8228 114.738 41.2332 113.283 45.3322C111.821 49.4505 110.546 52.5539 110.434 52.2684C109.999 51.1643 100.898 25.6381 100.898 25.522C100.898 25.4541 100.492 25.3986 99.9967 25.3986C99.3567 25.3986 99.1508 25.5416 99.2859 25.8923ZM148.584 27.1004C151.393 28.5524 153.445 32.2191 152.888 34.7917C152.137 38.2606 149.273 40.9004 146.262 40.9004C145.323 40.9004 145.238 40.7299 142.795 33.9129C141.418 30.0698 140.291 26.7945 140.291 26.6343C140.291 26.1847 147.608 26.5957 148.584 27.1004ZM127.63 35.5609C127.356 36.2719 127.728 37.1111 128.316 37.1111C129.023 37.1111 129.625 36.2547 129.375 35.6047C129.104 34.9009 127.896 34.8706 127.63 35.5609ZM2.00814e-05 92.8313C0.00831343 93.2771 4.34953 107.019 4.54304 107.211C4.64429 107.312 5.54827 105.261 6.55176 102.654C7.55526 100.046 8.48653 97.7908 8.62095 97.642C8.75537 97.4936 9.70738 99.6232 10.7368 102.375C11.7659 105.126 12.6857 107.379 12.7808 107.379C13.08 107.382 17.4081 92.9371 17.1769 92.707C16.5439 92.0759 15.9073 93.2967 14.5293 97.7853C13.6934 100.508 12.9038 102.859 12.7745 103.01C12.6453 103.162 11.7113 101.104 10.6984 98.4381C9.68596 95.7718 8.75606 93.7101 8.63201 93.8568C8.5083 94.0032 7.66411 96.0609 6.75633 98.4292C5.84856 100.798 5.00574 102.915 4.88307 103.136C4.7604 103.356 3.89582 101.069 2.96143 98.0544C1.57576 93.584 1.14554 92.573 0.628932 92.573C0.280266 92.573 -0.00274437 92.689 2.00814e-05 92.8313ZM22.1108 99.8071C22.1108 106.811 22.1325 107.041 22.8019 107.041C23.4712 107.041 23.493 106.811 23.493 99.8071C23.493 92.8027 23.4712 92.573 22.8019 92.573C22.1325 92.573 22.1108 92.8027 22.1108 99.8071ZM29.3674 99.7868C29.3674 106.78 29.392 107.041 30.0496 107.041C30.6944 107.041 30.7369 106.756 30.8271 101.811L30.9224 96.58L32.7079 99.1409C33.69 100.549 35.0328 102.451 35.6922 103.368L36.8909 105.034L39.9539 100.668L43.0169 96.3027L43.1119 101.672C43.1911 106.131 43.2937 107.041 43.7167 107.041C44.1496 107.041 44.2264 105.952 44.2264 99.8071C44.2264 95.8283 44.1707 92.573 44.1026 92.573C44.0349 92.573 42.4523 94.7511 40.5856 97.4133C38.7192 100.075 37.0951 102.313 36.9766 102.386C36.8581 102.46 35.227 100.352 33.3517 97.703C31.4767 95.0539 29.8132 92.8069 29.6549 92.7094C29.4967 92.6119 29.3674 95.797 29.3674 99.7868ZM50.1803 99.6924C50.249 104.933 50.3852 106.849 50.6965 106.952C51.0158 107.058 51.143 105.765 51.2149 101.691L51.3102 96.2896L54.2133 100.373C55.8097 102.62 57.2241 104.581 57.3561 104.732C57.4881 104.882 58.9031 103.128 60.5003 100.833L63.4047 96.6609L63.5001 101.851C63.5903 106.757 63.6328 107.041 64.2776 107.041C64.9352 107.041 64.9597 106.78 64.9597 99.8071C64.9597 95.8283 64.8896 92.573 64.8039 92.573C64.7182 92.573 63.065 94.8314 61.1303 97.5917C59.1955 100.352 57.495 102.483 57.3516 102.328C57.2082 102.173 55.5841 99.9149 53.7423 97.3096C51.9005 94.7046 50.3244 92.573 50.2401 92.573C50.1557 92.573 50.1288 95.7767 50.1803 99.6924ZM70.4886 99.8071V107.041H75.3264C79.9337 107.041 80.1642 107.009 80.1642 106.352C80.1642 105.702 79.9337 105.663 76.0175 105.663H71.8708V103.08V100.496H75.1536C78.2059 100.496 78.4364 100.448 78.4364 99.8071C78.4364 99.1664 78.2059 99.1181 75.1536 99.1181H71.8708V96.5345V93.9509H76.0175C79.9337 93.9509 80.1642 93.9126 80.1642 93.2619C80.1642 92.6057 79.9337 92.573 75.3264 92.573H70.4886V99.8071ZM85.3475 99.8071C85.3475 106.811 85.3693 107.041 86.0386 107.041C86.7056 107.041 86.7297 106.811 86.7297 100.496V93.9509H89.2948C91.5502 93.9509 91.9884 94.0587 92.9231 94.8428C95.276 96.8163 93.7991 99.2432 89.9977 99.6493L87.7837 99.8856L89.8304 102.344C90.9562 103.696 92.3153 105.322 92.8506 105.956C93.5372 106.77 94.0552 107.075 94.6074 106.99C95.3241 106.879 95.1834 106.62 92.9532 103.941L90.5157 101.013L91.5513 100.8C94.0448 100.287 95.5577 98.4678 95.2698 96.3282C94.8983 93.5695 93.0938 92.573 88.4686 92.573H85.3475V99.8071ZM109.536 99.8071C109.536 106.811 109.558 107.041 110.228 107.041C110.894 107.041 110.919 106.811 110.919 100.496V93.9509H113.36C116.723 93.9509 118.141 94.7952 118.164 96.8094C118.182 98.3713 116.786 99.3717 114.203 99.6473L112.006 99.8819L114.964 103.462C117.277 106.26 118.11 107.041 118.784 107.041H119.646L118.824 106.016C118.372 105.453 117.254 104.057 116.338 102.916C114.878 101.096 114.764 100.841 115.405 100.841C115.807 100.841 116.581 100.611 117.125 100.331C120.442 98.6211 120.324 94.4662 116.919 93.048C116.235 92.7631 114.528 92.573 112.658 92.573H109.536V99.8071ZM124.741 99.8071V107.041H129.579C134.186 107.041 134.416 107.009 134.416 106.352C134.416 105.702 134.186 105.663 130.27 105.663H126.123V103.08V100.496H129.406C132.458 100.496 132.689 100.448 132.689 99.8071C132.689 99.1664 132.458 99.1181 129.406 99.1181H126.123V96.5345V93.9509H130.27C134.186 93.9509 134.416 93.9126 134.416 93.2619C134.416 92.6057 134.186 92.573 129.579 92.573H124.741V99.8071ZM144.328 95.0171C143.68 96.4201 142.196 99.6128 141.03 102.112C139.863 104.612 138.909 106.743 138.909 106.849C138.909 106.955 139.193 107.041 139.541 107.041C139.961 107.041 140.444 106.464 140.982 105.319L141.791 103.596H145.524H149.256L149.999 105.319C150.514 106.511 150.942 107.041 151.391 107.041C151.748 107.041 152.04 106.919 152.04 106.769C152.04 106.35 146.153 93.132 145.808 92.7779C145.632 92.5964 145.014 93.532 144.328 95.0171ZM156.532 99.8071V107.041H161.197C165.113 107.041 165.862 106.958 165.862 106.525C165.862 106.095 165.19 106.008 161.888 106.008H157.914V99.2904C157.914 92.8027 157.891 92.573 157.223 92.573C156.554 92.573 156.532 92.8027 156.532 99.8071ZM180.03 99.8071V107.041H184.893C189.338 107.041 189.746 106.99 189.64 106.438C189.539 105.912 189.011 105.823 185.468 105.738L181.412 105.642V103.069V100.496H184.522C187.402 100.496 187.632 100.445 187.632 99.8071C187.632 99.1691 187.402 99.1181 184.522 99.1181H181.412V96.5345V93.9509H185.559C189.475 93.9509 189.705 93.9126 189.705 93.2619C189.705 92.6057 189.475 92.573 184.868 92.573H180.03V99.8071ZM195.899 93.356C194.187 94.5059 193.64 95.6571 194.042 97.2645C194.481 99.0196 195.982 99.9828 199.098 100.507C202.897 101.145 204.254 102.983 202.276 104.811C200.426 106.52 196.752 106.218 195.637 104.265C194.704 102.63 193.478 103.09 194.253 104.785C195.112 106.664 198.368 107.777 200.967 107.079C204.065 106.248 205.416 103.027 203.52 100.996C202.483 99.8846 201.735 99.578 198.978 99.1357C195.517 98.5797 194.196 96.5993 196.11 94.8317C197.902 93.1755 201.002 93.4224 202.63 95.3519C203.658 96.5693 204.219 96.643 204.219 95.561C204.219 94.7401 203.249 93.6488 201.909 92.9605C200.544 92.2595 197.204 92.4793 195.899 93.356ZM208.02 93.2619C208.02 93.8934 208.25 93.9509 210.784 93.9509H213.549V100.496C213.549 106.811 213.573 107.041 214.24 107.041C214.907 107.041 214.931 106.811 214.931 100.496V93.9509H217.868C220.575 93.9509 220.805 93.8968 220.805 93.2619C220.805 92.5978 220.575 92.573 214.413 92.573C208.25 92.573 208.02 92.5978 208.02 93.2619ZM228.814 93.1482C227.957 94.7442 222.533 106.492 222.533 106.752C222.533 106.911 222.818 107.041 223.165 107.041C223.585 107.041 224.069 106.464 224.607 105.319L225.416 103.596H229.115H232.815L233.558 105.319C234.091 106.553 234.495 107.041 234.983 107.041C235.358 107.041 235.664 106.968 235.664 106.877C235.664 106.578 229.69 93.0952 229.424 92.7945C229.28 92.6319 229.006 92.791 228.814 93.1482ZM237.392 93.2619C237.392 93.8934 237.623 93.9509 240.157 93.9509H242.921V100.496C242.921 106.811 242.945 107.041 243.612 107.041C244.279 107.041 244.303 106.811 244.303 100.496V93.9509H247.068C249.602 93.9509 249.832 93.8934 249.832 93.2619C249.832 92.5984 249.602 92.573 243.612 92.573C237.623 92.573 237.392 92.5984 237.392 93.2619ZM254.67 99.8071V107.041H259.335C263.769 107.041 264 107.007 264 106.352C264 105.702 263.77 105.663 259.853 105.663H255.707V103.08V100.496H258.989C262.042 100.496 262.272 100.448 262.272 99.8071C262.272 99.1664 262.042 99.1181 258.989 99.1181H255.707V96.5345V93.9509H259.853C263.77 93.9509 264 93.9126 264 93.2619C264 92.6071 263.769 92.573 259.335 92.573H254.67V99.8071ZM148.257 101.443C148.565 102.212 148.542 102.218 145.494 102.218H142.422L144.013 98.7902L145.604 95.3622L146.776 98.0151C147.42 99.4743 148.087 101.017 148.257 101.443ZM231.546 100.754L232.184 102.218H229.106H226.028L227.229 99.5918C227.889 98.147 228.607 96.6358 228.824 96.2331C229.248 95.4473 229.185 95.3419 231.546 100.754Z" fill="#A28032"/>
</svg>
