<svg width="72" height="72" viewBox="0 0 72 72" fill="none" xmlns="http://www.w3.org/2000/svg">
<path fill-rule="evenodd" clip-rule="evenodd" d="M31.3696 0.298486C19.2742 1.83021 8.33704 9.88726 3.25124 21.0127C-3.73732 36.3004 0.83106 54.5052 14.165 64.505C21.522 70.0221 30.0955 72.4807 39.2515 71.699C52.3202 70.5829 63.8944 62.2538 69.1199 50.2049C72.5372 42.325 72.94 32.6293 70.1863 24.5232C65.7261 11.3934 54.1212 1.97257 40.3333 0.288318C37.1611 -0.0993132 34.4874 -0.0962319 31.3696 0.298486ZM42.9429 2.09983C47.7521 3.07692 51.434 4.6185 55.4788 7.34825C65.4386 14.0705 71.3565 25.9465 70.6759 37.8469C70.1254 47.4785 65.4436 56.6211 57.9392 62.72C54.4591 65.548 48.9922 68.3351 44.6606 69.4896C41.8537 70.2375 41.0584 70.3133 36.006 70.3142C30.8949 70.3151 30.1908 70.2464 27.3514 69.4696C23.8074 68.5002 19.5085 66.5596 16.6498 64.6387C14.2932 63.0552 10.3226 59.3009 8.5194 56.9511C3.17397 49.9855 0.610989 41.1658 1.49005 32.7599C3.09701 17.3915 13.9396 5.3269 29.0514 2.09305C32.7856 1.29375 38.99 1.29684 42.9429 2.09983ZM38.3242 22.1321C38.3242 22.7077 38.5304 22.7484 41.4377 22.7484C43.8508 22.7484 44.5289 22.8393 44.4513 23.1524C44.3963 23.3745 43.38 26.2781 42.1925 29.6044L40.0338 35.6521L37.5864 28.7234C36.2403 24.9127 35.0305 21.9054 34.8979 22.0406C34.6305 22.3133 28.7423 38.6644 28.7423 39.1343C28.7423 39.2973 29.0412 39.386 29.4066 39.3321C29.9704 39.2483 30.4142 38.2783 32.3417 32.9168C33.5904 29.4426 34.6948 26.3921 34.7959 26.1379C34.9001 25.875 35.6978 27.6693 36.6455 30.2977C37.562 32.8397 38.679 35.9315 39.1275 37.1684C39.576 38.4052 40.0146 39.3457 40.1021 39.2584C40.1896 39.1712 41.3434 36.0794 42.666 32.3877C44.9635 25.9761 45.0874 25.717 45.4339 26.6001C46.1773 28.4938 48.5242 35.2133 48.5242 35.4472C48.5242 35.5806 47.8288 35.69 46.9788 35.69C45.5362 35.69 45.4333 35.7414 45.4333 36.4603C45.4333 37.1995 45.5115 37.2306 47.3651 37.2343L49.2969 37.2377L51.23 42.7037C52.2933 45.7098 53.1624 48.2735 53.1618 48.4004C53.1612 48.5274 51.0742 48.6315 48.5242 48.6315H43.8878V49.4019V50.1722H49.606C52.751 50.1722 55.3242 50.1198 55.3242 50.056C55.3242 49.9922 54.5592 47.8258 53.6242 45.2421C52.6892 42.6584 51.9242 40.4762 51.9242 40.393C51.9242 40.3098 53.827 42.476 56.1529 45.2069C59.8206 49.5137 60.5003 50.1722 61.2789 50.1722H62.1762L61.247 49.0167C60.7361 48.3813 58.3017 45.504 55.8376 42.623L51.357 37.3847L52.8697 36.8667C56.1767 35.7343 58.0677 33.3528 58.3394 29.9778C58.6182 26.5175 56.9912 23.6589 53.9355 22.2403C52.458 21.5544 52.0695 21.5217 45.356 21.519C38.5291 21.5159 38.3242 21.5337 38.3242 22.1321ZM9.06434 22.2656C9.15768 22.5084 11.4079 28.7826 14.0648 36.2086C16.7215 43.6342 18.9896 49.8071 19.1052 49.9254C19.2205 50.044 20.4241 47.0329 21.7797 43.234L24.2445 36.3266L26.1967 41.7858C27.2708 44.7882 28.4092 47.9382 28.7269 48.7856L29.3043 50.3263L29.6672 49.4019C30.5632 47.1201 35.5424 33.0826 35.5424 32.8382C35.5424 32.6885 35.2351 32.6102 34.8593 32.6641C34.2689 32.7495 33.8615 33.6486 31.8478 39.3105C30.5672 42.912 29.4341 45.8583 29.3299 45.8583C29.2258 45.8583 28.0936 42.912 26.8142 39.3105C25.5346 35.7094 24.3672 32.8132 24.2197 32.8752C24.072 32.9371 22.8863 35.9876 21.5847 39.6541C20.2769 43.3378 19.1367 46.1138 19.0359 45.8583C18.6468 44.8708 10.5059 22.0382 10.5059 21.9343C10.5059 21.8736 10.1434 21.824 9.70014 21.824C9.1277 21.824 8.94348 21.9519 9.06434 22.2656ZM53.1606 23.3462C55.6732 24.645 57.508 27.9247 57.01 30.2259C56.3381 33.3288 53.7769 35.69 51.0832 35.69C50.2431 35.69 50.1677 35.5374 47.9824 29.4398C46.7503 26.0023 45.7424 23.0726 45.7424 22.9293C45.7424 22.5272 52.2877 22.8948 53.1606 23.3462ZM34.4179 30.9139C34.1728 31.5499 34.5051 32.3005 35.0311 32.3005C35.6638 32.3005 36.2023 31.5345 35.9782 30.953C35.7359 30.3235 34.6556 30.2964 34.4179 30.9139Z" fill="#A28032"/>
</svg>
