<svg width="72" height="72" viewBox="0 0 72 72" fill="none" xmlns="http://www.w3.org/2000/svg">
<path d="M36.0004 7.65002L61.0504 22.5C61.3504 22.75 61.6004 23.0375 61.8004 23.3625C62.0004 23.6875 62.1004 24.05 62.1004 24.45V54.6C62.1004 55.9 61.6754 56.975 60.8254 57.825C59.9754 58.675 58.9004 59.1 57.6004 59.1H14.4004C13.1004 59.1 12.0254 58.675 11.1754 57.825C10.3254 56.975 9.90039 55.9 9.90039 54.6V24.45C9.90039 24.05 10.0004 23.6875 10.2004 23.3625C10.4004 23.0375 10.6504 22.75 10.9504 22.5L36.0004 7.65002ZM36.0004 37.95L59.4004 24L36.0004 10.05L12.6004 24L36.0004 37.95ZM36.0004 40.35L12.0004 26.1V54.6C12.0004 55.3 12.2254 55.875 12.6754 56.325C13.1254 56.775 13.7004 57 14.4004 57H57.6004C58.3004 57 58.8754 56.775 59.3254 56.325C59.7754 55.875 60.0004 55.3 60.0004 54.6V26.1L36.0004 40.35ZM36.0004 57H60.0004H12.0004H36.0004Z" fill="#9E7B2F"/>
</svg>
