<svg width="48" height="48" viewBox="0 0 48 48" fill="none" xmlns="http://www.w3.org/2000/svg">
<path d="M11.6001 39.4001C10.7334 39.4001 10.0168 39.1168 9.4501 38.5501C8.88343 37.9834 8.6001 37.2668 8.6001 36.4001V11.6001C8.6001 10.7334 8.88343 10.0168 9.4501 9.4501C10.0168 8.88343 10.7334 8.6001 11.6001 8.6001H36.4001C37.2668 8.6001 37.9834 8.88343 38.5501 9.4501C39.1168 10.0168 39.4001 10.7334 39.4001 11.6001V36.4001C39.4001 37.2668 39.1168 37.9834 38.5501 38.5501C37.9834 39.1168 37.2668 39.4001 36.4001 39.4001H11.6001ZM11.6001 38.0001H36.4001C36.8001 38.0001 37.1668 37.8334 37.5001 37.5001C37.8334 37.1668 38.0001 36.8001 38.0001 36.4001V11.6001C38.0001 11.2001 37.8334 10.8334 37.5001 10.5001C37.1668 10.1668 36.8001 10.0001 36.4001 10.0001H11.6001C11.2001 10.0001 10.8334 10.1668 10.5001 10.5001C10.1668 10.8334 10.0001 11.2001 10.0001 11.6001V36.4001C10.0001 36.8001 10.1668 37.1668 10.5001 37.5001C10.8334 37.8334 11.2001 38.0001 11.6001 38.0001ZM15.9001 32.7001H32.5001L27.4001 25.9001L22.4001 32.1001L19.2001 28.4001L15.9001 32.7001ZM17.0001 18.7001C17.4668 18.7001 17.8668 18.5334 18.2001 18.2001C18.5334 17.8668 18.7001 17.4668 18.7001 17.0001C18.7001 16.5334 18.5334 16.1334 18.2001 15.8001C17.8668 15.4668 17.4668 15.3001 17.0001 15.3001C16.5334 15.3001 16.1334 15.4668 15.8001 15.8001C15.4668 16.1334 15.3001 16.5334 15.3001 17.0001C15.3001 17.4668 15.4668 17.8668 15.8001 18.2001C16.1334 18.5334 16.5334 18.7001 17.0001 18.7001Z" fill="#171717"/>
</svg>
