<svg width="48" height="48" viewBox="0 0 48 48" fill="none" xmlns="http://www.w3.org/2000/svg">
<path d="M9.3001 37.4001C8.53343 37.4001 7.89176 37.1418 7.3751 36.6251C6.85843 36.1084 6.6001 35.4668 6.6001 34.7001V13.6001C6.6001 12.8334 6.90843 12.1418 7.5251 11.5251C8.14176 10.9084 8.83343 10.6001 9.6001 10.6001H18.9501L22.9501 14.6001H38.4001C38.9668 14.6001 39.4668 14.7251 39.9001 14.9751C40.3334 15.2251 40.6834 15.5668 40.9501 16.0001H22.4001L18.4001 12.0001H9.6001C9.13343 12.0001 8.7501 12.1501 8.4501 12.4501C8.1501 12.7501 8.0001 13.1334 8.0001 13.6001V34.4001C8.0001 34.7668 8.09176 35.0668 8.2751 35.3001C8.45843 35.5334 8.7001 35.7334 9.0001 35.9001L13.4501 21.0001H45.3501L41.0001 35.5001C40.8334 36.0668 40.5084 36.5251 40.0251 36.8751C39.5418 37.2251 39.0001 37.4001 38.4001 37.4001H9.3001ZM10.4501 36.0001H39.4001L43.4501 22.4001H14.5001L10.4501 36.0001Z" fill="#171717"/>
</svg>
