<svg width="48" height="48" viewBox="0 0 48 48" fill="none" xmlns="http://www.w3.org/2000/svg">
<path d="M18.4001 24L23.0501 19.35L18.5501 14.85L16.2001 17.2L15.2001 16.2L17.5501 13.85L13.1501 9.45005L8.5001 14.1L18.4001 24ZM33.8501 39.4501L38.5001 34.8001L34.1001 30.4001L31.7501 32.7501L30.7501 31.7501L33.1001 29.4001L28.6501 24.9501L24.0001 29.6L33.8501 39.4501ZM14.2501 39.4001H8.6001V33.7501L17.4001 24.9501L6.6001 14.1L13.1501 7.55005L24.0501 18.4001L33.4001 9.05005C33.5668 8.88338 33.7334 8.76672 33.9001 8.70005C34.0668 8.63338 34.2501 8.60005 34.4501 8.60005C34.6501 8.60005 34.8334 8.63338 35.0001 8.70005C35.1668 8.76672 35.3334 8.88338 35.5001 9.05005L38.9501 12.65C39.1168 12.8167 39.2251 12.9834 39.2751 13.15C39.3251 13.3167 39.3501 13.5 39.3501 13.7C39.3501 13.9 39.3251 14.075 39.2751 14.225C39.2251 14.375 39.1168 14.5334 38.9501 14.7L29.7001 24L40.4501 34.8501L33.9001 41.4001L23.0501 30.6L14.2501 39.4001ZM10.0001 38.0001H13.6501L33.3001 18.35L29.6501 14.7L10.0001 34.3501V38.0001ZM31.5001 16.5L29.6501 14.7L33.3001 18.35L31.5001 16.5Z" fill="#171717"/>
</svg>
