<svg width="48" height="48" viewBox="0 0 48 48" fill="none" xmlns="http://www.w3.org/2000/svg">
<path d="M13.6001 29.4001C15.3334 29.2334 17.0668 29.1084 18.8001 29.0251C20.5334 28.9417 22.2668 28.9001 24.0001 28.9001C25.7334 28.9001 27.4668 28.9417 29.2001 29.0251C30.9334 29.1084 32.6668 29.2334 34.4001 29.4001L28.0001 21.7001L22.7501 27.9501L18.7501 23.1501L13.6001 29.4001ZM8.5001 36.6001C8.0001 36.7667 7.55843 36.7417 7.1751 36.5251C6.79176 36.3084 6.6001 35.9001 6.6001 35.3001V12.8001C6.6001 12.2001 6.79176 11.7917 7.1751 11.5751C7.55843 11.3584 8.0001 11.3334 8.5001 11.5001C9.26676 11.7334 10.1834 11.9751 11.2501 12.2251C12.3168 12.4751 13.5001 12.7001 14.8001 12.9001C16.1001 13.1001 17.5168 13.2667 19.0501 13.4001C20.5834 13.5334 22.2334 13.6001 24.0001 13.6001C25.7668 13.6001 27.4084 13.5334 28.9251 13.4001C30.4418 13.2667 31.8501 13.1001 33.1501 12.9001C34.4501 12.7001 35.6251 12.4751 36.6751 12.2251C37.7251 11.9751 38.6334 11.7334 39.4001 11.5001C39.9001 11.3334 40.3584 11.3584 40.7751 11.5751C41.1918 11.7917 41.4001 12.2001 41.4001 12.8001V35.3001C41.4001 35.9001 41.1918 36.3084 40.7751 36.5251C40.3584 36.7417 39.9001 36.7667 39.4001 36.6001C38.6334 36.3667 37.7251 36.1251 36.6751 35.8751C35.6251 35.6251 34.4501 35.3834 33.1501 35.1501C31.8501 34.9167 30.4418 34.7334 28.9251 34.6001C27.4084 34.4667 25.7668 34.4001 24.0001 34.4001C22.2334 34.4001 20.5834 34.4667 19.0501 34.6001C17.5168 34.7334 16.1001 34.9167 14.8001 35.1501C13.5001 35.3834 12.3168 35.6251 11.2501 35.8751C10.1834 36.1251 9.26676 36.3667 8.5001 36.6001ZM8.0001 35.3001C10.6001 34.5334 13.2418 33.9584 15.9251 33.5751C18.6084 33.1917 21.3001 33.0001 24.0001 33.0001C26.7001 33.0001 29.3918 33.1917 32.0751 33.5751C34.7584 33.9584 37.4001 34.5334 40.0001 35.3001V12.8001C37.4001 13.5667 34.7584 14.1251 32.0751 14.4751C29.3918 14.8251 26.7001 15.0001 24.0001 15.0001C21.3001 15.0001 18.6084 14.8251 15.9251 14.4751C13.2418 14.1251 10.6001 13.5667 8.0001 12.8001V35.3001Z" fill="#171717"/>
</svg>
