<svg width="48" height="48" viewBox="0 0 48 48" fill="none" xmlns="http://www.w3.org/2000/svg">
<path d="M23.3001 39.85C23.6001 39.85 23.9084 39.7834 24.2251 39.6501C24.5418 39.5167 24.8001 39.35 25.0001 39.1501L40.3501 23.8C40.8834 23.2667 41.3001 22.7334 41.6001 22.2C41.9001 21.6667 42.0501 21.0667 42.0501 20.4C42.0501 19.7334 41.9001 19.0834 41.6001 18.45C41.3001 17.8167 40.8834 17.2334 40.3501 16.7L33.1501 9.50005C32.6168 8.96672 32.0834 8.57505 31.5501 8.32505C31.0168 8.07505 30.4168 7.95005 29.7501 7.95005C29.0834 7.95005 28.4751 8.07505 27.9251 8.32505C27.3751 8.57505 26.8501 8.96672 26.3501 9.50005L24.2501 11.6L27.9501 15.3C28.3168 15.6667 28.5918 16.0834 28.7751 16.55C28.9584 17.0167 29.0501 17.4834 29.0501 17.95C29.0501 18.8834 28.7501 19.65 28.1501 20.25C27.5501 20.85 26.7834 21.15 25.8501 21.15C25.3834 21.15 24.9251 21.0834 24.4751 20.95C24.0251 20.8167 23.6168 20.5667 23.2501 20.2L19.4001 16.35L10.8001 24.95C10.5668 25.1834 10.3918 25.45 10.2751 25.75C10.1584 26.05 10.1001 26.35 10.1001 26.65C10.1001 27.1834 10.2668 27.6167 10.6001 27.95C10.9334 28.2834 11.3668 28.45 11.9001 28.45C12.2001 28.45 12.5084 28.3834 12.8251 28.25C13.1418 28.1167 13.4001 27.95 13.6001 27.75L19.8001 21.55L20.8001 22.55L14.6001 28.75C14.3668 28.9834 14.1918 29.25 14.0751 29.55C13.9584 29.85 13.9001 30.15 13.9001 30.45C13.9001 30.95 14.0751 31.375 14.4251 31.725C14.7751 32.075 15.2001 32.25 15.7001 32.25C16.0001 32.25 16.3084 32.1834 16.6251 32.05C16.9418 31.9167 17.2001 31.75 17.4001 31.55L24.2001 24.75L25.2001 25.75L18.4001 32.55C18.2001 32.75 18.0334 33.0084 17.9001 33.325C17.7668 33.6417 17.7001 33.95 17.7001 34.25C17.7001 34.75 17.8751 35.175 18.2251 35.525C18.5751 35.875 19.0001 36.05 19.5001 36.05C19.8001 36.05 20.1001 35.9917 20.4001 35.875C20.7001 35.7584 20.9668 35.5834 21.2001 35.35L28.0001 28.55L29.0001 29.55L22.2001 36.35C21.9668 36.5834 21.7918 36.8667 21.6751 37.2C21.5584 37.5334 21.5001 37.8334 21.5001 38.1C21.5001 38.6334 21.6834 39.0584 22.0501 39.375C22.4168 39.6917 22.8334 39.85 23.3001 39.85ZM23.3001 41.25C22.3334 41.25 21.5168 40.8834 20.8501 40.1501C20.1834 39.4167 19.9334 38.5167 20.1001 37.45C18.9668 37.5167 18.0251 37.2167 17.2751 36.55C16.5251 35.8834 16.2001 34.9167 16.3001 33.65C15.0334 33.7167 14.0501 33.4 13.3501 32.7C12.6501 32 12.3668 31.05 12.5001 29.85C11.4334 29.9167 10.5334 29.675 9.8001 29.125C9.06676 28.575 8.7001 27.75 8.7001 26.65C8.7001 26.1834 8.79176 25.7084 8.9751 25.225C9.15843 24.7417 9.43343 24.3167 9.8001 23.95L19.4001 14.35L24.1501 19.1C24.3501 19.3 24.5918 19.4667 24.8751 19.6C25.1584 19.7334 25.4834 19.8 25.8501 19.8C26.3168 19.8 26.7334 19.6334 27.1001 19.3C27.4668 18.9667 27.6501 18.5334 27.6501 18C27.6501 17.6334 27.5834 17.3084 27.4501 17.025C27.3168 16.7417 27.1501 16.5 26.9501 16.3L20.1501 9.50005C19.6168 8.96672 19.0751 8.57505 18.5251 8.32505C17.9751 8.07505 17.3668 7.95005 16.7001 7.95005C16.0334 7.95005 15.4418 8.07505 14.9251 8.32505C14.4084 8.57505 13.8834 8.96672 13.3501 9.50005L7.5501 15.3C7.08343 15.7667 6.70843 16.325 6.4251 16.975C6.14176 17.625 6.0001 18.3 6.0001 19C6.0001 19.4667 6.0501 19.9084 6.1501 20.325C6.2501 20.7417 6.4001 21.1334 6.6001 21.5L5.5001 22.6C5.23343 22.1334 5.01676 21.5834 4.8501 20.95C4.68343 20.3167 4.6001 19.6667 4.6001 19C4.6001 18.1 4.76676 17.2417 5.1001 16.425C5.43343 15.6084 5.91676 14.8834 6.5501 14.25L12.3001 8.50005C12.9668 7.83338 13.6584 7.34172 14.3751 7.02505C15.0918 6.70838 15.8834 6.55005 16.7501 6.55005C17.6168 6.55005 18.4001 6.70838 19.1001 7.02505C19.8001 7.34172 20.4834 7.83338 21.1501 8.50005L23.2501 10.6L25.3501 8.50005C26.0168 7.83338 26.7001 7.34172 27.4001 7.02505C28.1001 6.70838 28.8834 6.55005 29.7501 6.55005C30.6168 6.55005 31.4084 6.70838 32.1251 7.02505C32.8418 7.34172 33.5334 7.83338 34.2001 8.50005L41.3501 15.65C42.0168 16.3167 42.5334 17.0584 42.9001 17.875C43.2668 18.6917 43.4501 19.5334 43.4501 20.4C43.4501 21.2667 43.2668 22.05 42.9001 22.75C42.5334 23.45 42.0168 24.1334 41.3501 24.8L26.0001 40.1501C25.6001 40.55 25.1751 40.8334 24.7251 41C24.2751 41.1667 23.8001 41.25 23.3001 41.25Z" fill="#171717"/>
</svg>
