<svg width="72" height="72" viewBox="0 0 72 72" fill="none" xmlns="http://www.w3.org/2000/svg">
<path d="M63 60C63 61.6575 61.6575 63 60 63H12C10.3425 63 9 61.6575 9 60V12C9 10.3425 10.3425 9 12 9H60C61.6575 9 63 10.3425 63 12V60Z" fill="url(#paint0_linear_56_49)"/>
<path opacity="0.05" d="M37.5 56.9999V40.4999H31.5V31.4999H37.5V28.2929C37.5 20.7299 41.499 16.5659 48.7575 16.5659C51.75 16.5659 53.373 16.7759 54.1545 16.8779L55.4415 17.0444L55.5 18.3359V25.4999H50.0475C48.3555 25.4999 48 27.5669 48 29.3024V31.4999H55.0845L53.6925 40.4999H48V56.9999H37.5Z" fill="black"/>
<path opacity="0.07" d="M38.25 56.2499V39.7499H32.25V32.2499H38.25V28.2929C38.25 21.1109 41.883 17.3159 48.7575 17.3159C51.714 17.3159 53.3025 17.5229 54.0675 17.6219L54.7215 17.7074L54.7515 18.3704V24.7499H50.049C47.6145 24.7499 47.2515 27.6014 47.2515 29.3024V32.2499H54.2115L53.052 39.7499H47.25V56.2499H38.25Z" fill="black"/>
<path d="M50.0475 24H54V18.369C53.262 18.273 51.7035 18.0645 48.7575 18.0645C42.606 18.0645 39 21.1845 39 28.293V33H33V39H39V55.5H46.5V39H52.407L53.334 33H46.5V29.3025C46.5 26.4915 47.418 24 50.0475 24Z" fill="white"/>
<defs>
<linearGradient id="paint0_linear_56_49" x1="9.342" y1="7.344" x2="63.1155" y2="65.148" gradientUnits="userSpaceOnUse">
<stop stop-color="#0D61A9"/>
<stop offset="1" stop-color="#16528C"/>
</linearGradient>
</defs>
</svg>
