<svg width="72" height="72" viewBox="0 0 72 72" fill="none" xmlns="http://www.w3.org/2000/svg">
<path d="M63 55.5C63 59.643 59.643 63 55.5 63H16.5C12.3585 63 9 59.643 9 55.5V16.5C9 12.357 12.3585 9 16.5 9H55.5C59.643 9 63 12.357 63 16.5V55.5Z" fill="#0078D4"/>
<path opacity="0.05" d="M45 55.5V40.3515C45 37.818 43.7715 36.3045 41.712 36.3045C40.4895 36.3045 39.591 36.993 39.0435 38.3505C39.018 38.4465 38.982 38.838 38.997 40.0215L39 55.5H28.5V27H39V28.5915C40.533 27.534 42.4125 27 44.607 27C51.4275 27 55.4985 31.6395 55.4985 39.411L55.5 55.5H45ZM16.5 55.5V27H21.6855C18.681 27 16.5 24.792 16.5 21.7485C16.5 18.708 18.717 16.5 21.771 16.5C24.789 16.5 26.9385 18.6465 27 21.7185C27 24.7845 24.7815 27 21.7275 27H27V55.5H16.5Z" fill="black"/>
<path opacity="0.07" d="M45.75 54.75V40.3515C45.75 37.392 44.2035 35.5545 41.712 35.5545C39.7695 35.5545 38.8095 36.9225 38.3475 38.07C38.2245 38.3685 38.241 39.5535 38.247 40.059L38.25 54.75H29.25V27.75H38.25V30.207C39.4425 28.9725 41.3625 27.75 44.607 27.75C50.9565 27.75 54.7485 32.109 54.7485 39.411L54.75 54.75H45.75ZM17.25 54.75V27.75H26.25V54.75H17.25ZM21.6855 26.25C19.116 26.25 17.25 24.357 17.25 21.7485C17.25 19.1415 19.152 17.25 21.771 17.25C24.357 17.25 26.1975 19.0935 26.25 21.7335C26.25 24.357 24.348 26.25 21.7275 26.25H21.6855Z" fill="black"/>
<path d="M18 28.5H25.5V54H18V28.5ZM21.7275 25.5H21.6855C19.4475 25.5 18 23.832 18 21.7485C18 19.62 19.4925 18 21.771 18C24.0525 18 25.458 19.62 25.5 21.7485C25.5 23.8305 24.0525 25.5 21.7275 25.5ZM54 54H46.5V40.3515C46.5 37.0545 44.6625 34.8045 41.712 34.8045C39.4605 34.8045 38.2425 36.3225 37.6515 37.7895C37.4355 38.3145 37.5 39.7665 37.5 40.5V54H30V28.5H37.5V32.424C38.5815 30.75 40.275 28.5 44.607 28.5C49.974 28.5 53.9985 31.875 53.9985 39.411L54 54Z" fill="white"/>
</svg>
