<svg width="48" height="48" viewBox="0 0 48 48" fill="none" xmlns="http://www.w3.org/2000/svg">
<path d="M24.0001 41.4001C21.5931 41.4001 19.3311 40.9434 17.2141 40.0301C15.0971 39.1164 13.2556 37.8766 11.6896 36.3106C10.1236 34.7446 8.88376 32.9031 7.9701 30.7861C7.05676 28.6691 6.6001 26.4071 6.6001 24.0001H8.0001C8.0001 28.2668 9.4501 31.9334 12.3501 35.0001C15.2501 38.0668 18.8334 39.7334 23.1001 40.0001L19.9001 36.8001L20.9001 35.8001L26.3001 41.2001C25.9334 41.2668 25.5501 41.3168 25.1501 41.3501C24.7501 41.3834 24.3668 41.4001 24.0001 41.4001ZM25.8001 29.2001V18.8001H31.2001C31.7668 18.8001 32.2418 18.9918 32.6251 19.3751C33.0084 19.7584 33.2001 20.2334 33.2001 20.8001V27.2001C33.2001 27.7668 33.0084 28.2418 32.6251 28.6251C32.2418 29.0084 31.7668 29.2001 31.2001 29.2001H25.8001ZM14.8001 29.2001V27.8001H20.8001V24.7001H16.8001V23.3001H20.8001V20.2001H14.8001V18.8001H21.0001C21.3401 18.8001 21.6251 18.9151 21.8551 19.1451C22.0851 19.3751 22.2001 19.6601 22.2001 20.0001V28.0001C22.2001 28.3401 22.0851 28.6251 21.8551 28.8551C21.6251 29.0851 21.3401 29.2001 21.0001 29.2001H14.8001ZM27.2001 27.8001H31.2001C31.4001 27.8001 31.5501 27.7501 31.6501 27.6501C31.7501 27.5501 31.8001 27.4001 31.8001 27.2001V20.8001C31.8001 20.6001 31.7501 20.4501 31.6501 20.3501C31.5501 20.2501 31.4001 20.2001 31.2001 20.2001H27.2001V27.8001ZM40.0001 24.0001C40.0001 19.7334 38.5501 16.0668 35.6501 13.0001C32.7501 9.93343 29.1668 8.26676 24.9001 8.0001L28.1001 11.2001L27.1001 12.2001L21.7001 6.8001C22.0668 6.73343 22.4501 6.68343 22.8501 6.6501C23.2501 6.61676 23.6334 6.6001 24.0001 6.6001C26.4071 6.6001 28.6691 7.05693 30.7861 7.9706C32.9031 8.88393 34.7446 10.1236 36.3106 11.6896C37.8766 13.2556 39.1163 15.0971 40.0296 17.2141C40.9433 19.3311 41.4001 21.5931 41.4001 24.0001H40.0001Z" fill="#171717"/>
</svg>
