<svg width="48" height="48" viewBox="0 0 48 48" fill="none" xmlns="http://www.w3.org/2000/svg">
<path d="M9.6001 37.4001C8.73343 37.4001 8.01676 37.1168 7.4501 36.5501C6.88343 35.9834 6.6001 35.2668 6.6001 34.4001V13.6001C6.6001 12.7334 6.88343 12.0168 7.4501 11.4501C8.01676 10.8834 8.73343 10.6001 9.6001 10.6001H38.4001C39.2668 10.6001 39.9834 10.8834 40.5501 11.4501C41.1168 12.0168 41.4001 12.7334 41.4001 13.6001V34.4001C41.4001 35.2668 41.1168 35.9834 40.5501 36.5501C39.9834 37.1168 39.2668 37.4001 38.4001 37.4001H9.6001ZM9.6001 36.0001H30.3001V28.0001H8.0001V34.4001C8.0001 34.8001 8.16676 35.1668 8.5001 35.5001C8.83343 35.8334 9.2001 36.0001 9.6001 36.0001ZM31.7001 36.0001H38.4001C38.8001 36.0001 39.1668 35.8334 39.5001 35.5001C39.8334 35.1668 40.0001 34.8001 40.0001 34.4001V18.6001H31.7001V36.0001ZM8.0001 26.6001H30.3001V18.6001H8.0001V26.6001Z" fill="#171717"/>
</svg>
