<svg width="48" height="48" viewBox="0 0 48 48" fill="none" xmlns="http://www.w3.org/2000/svg">
<path d="M23.0001 14.0001C23.0001 13.4334 23.1918 12.9584 23.5751 12.5751C23.9584 12.1918 24.4334 12.0001 25.0001 12.0001C25.5668 12.0001 26.0418 12.1918 26.4251 12.5751C26.8084 12.9584 27.0001 13.4334 27.0001 14.0001C27.0001 14.5668 26.8084 15.0418 26.4251 15.4251C26.0418 15.8084 25.5668 16.0001 25.0001 16.0001C24.4334 16.0001 23.9584 15.8084 23.5751 15.4251C23.1918 15.0418 23.0001 14.5668 23.0001 14.0001ZM25.0001 44.8501L19.5001 39.2501L21.9501 36.0001L19.4001 32.5001L21.6001 29.1501V22.8001C19.8668 22.1334 18.4334 21.0001 17.3001 19.4001C16.1668 17.8001 15.6001 16.0001 15.6001 14.0001C15.6001 11.4001 16.5168 9.18343 18.3501 7.3501C20.1834 5.51676 22.4001 4.6001 25.0001 4.6001C27.6001 4.6001 29.8168 5.51676 31.6501 7.3501C33.4834 9.18343 34.4001 11.4001 34.4001 14.0001C34.4001 16.0001 33.8418 17.8001 32.7251 19.4001C31.6084 21.0001 30.1668 22.1334 28.4001 22.8001V41.4501L25.0001 44.8501ZM17.0001 14.0001C17.0001 16.0001 17.6001 17.6918 18.8001 19.0751C20.0001 20.4584 21.4001 21.3334 23.0001 21.7001V29.6001L21.1001 32.4501L23.6501 36.0501L21.3001 39.2001L25.0001 42.9001L27.0001 40.9001V21.7001C28.6001 21.3334 30.0001 20.4584 31.2001 19.0751C32.4001 17.6918 33.0001 16.0001 33.0001 14.0001C33.0001 11.8001 32.2168 9.91676 30.6501 8.3501C29.0834 6.78343 27.2001 6.0001 25.0001 6.0001C22.8001 6.0001 20.9168 6.78343 19.3501 8.3501C17.7834 9.91676 17.0001 11.8001 17.0001 14.0001Z" fill="#171717"/>
</svg>
