<svg width="128" height="128" viewBox="0 0 128 128" fill="none" xmlns="http://www.w3.org/2000/svg">
<path d="M51.333 41.2356H44.6663V37.2356H51.333V41.2356ZM45.9997 39.9022H49.9997V38.5689H45.9997V39.9022ZM101.36 61.4311H77.5552V60.8889L63.9996 51.7867L50.4441 60.88V61.4222H26.6396L40.0885 44.0889H87.9108L101.36 61.4311ZM78.773 60.0978H98.6397L87.2619 45.4311H40.7374L29.3596 60.0978H49.2263L63.9996 50.1778L78.773 60.0978ZM75.333 90.7645H52.6663V85.8756H75.333V90.7645ZM53.9997 89.4311H73.9996V87.2089H53.9997V89.4311Z" fill="#9E7B2F"/>
<path d="M70 87.2089H58V68.0978H70V87.2089ZM59.3333 85.8756H68.6667V69.4311H59.3333V85.8756Z" fill="#9E7B2F"/>
<path d="M61.1555 76.9867H63.2888V78.32H61.1555V76.9867ZM69.9999 64.0978H57.9999V63.4311C57.9999 60.1245 60.6932 57.4311 63.9999 57.4311C67.3066 57.4311 69.9999 60.1245 69.9999 63.4311V64.0978ZM59.3777 62.7645H68.6221C68.2932 60.5067 66.3466 58.7645 63.9999 58.7645C61.6532 58.7645 59.7066 60.5067 59.3777 62.7645ZM50.8888 45.4311H45.111V39.9111H50.8888V45.4311ZM46.4443 44.0978H49.5554V41.2445H46.4443V44.0978ZM101.555 64.0978H77.5555V60.0978H101.555V64.0978ZM78.8888 62.7645H100.222V61.4311H78.8888V62.7645ZM50.4443 64.0978H26.4443V60.0978H50.4443V64.0978ZM27.7777 62.7645H49.111V61.4311H27.7777V62.7645Z" fill="#9E7B2F"/>
<path d="M50.444 90.7645H27.7773V62.7645H50.444V90.7645ZM29.1107 89.4311H49.1107V64.0978H29.1107V89.4311ZM100.222 90.7645H77.5551V62.7645H100.222V90.7645ZM78.8885 89.4311H98.8885V64.0978H78.8885V89.4311Z" fill="#9E7B2F"/>
<path d="M78.8891 90.7645H49.1113V60.1689L64.0002 50.1778L78.8891 60.1689V90.7645ZM50.4447 89.4311H77.5558V60.88L64.0002 51.7867L50.4447 60.88V89.4311Z" fill="#9E7B2F"/>
<path d="M96.2214 81.8756H81.5547V69.8756H96.2214V81.8756ZM82.888 80.5422H94.888V71.2089H82.888V80.5422Z" fill="#9E7B2F"/>
<path d="M82.2217 75.2089H95.555V76.5423H82.2217V75.2089Z" fill="#9E7B2F"/>
<path d="M88.2217 70.5422H89.555V81.2089H88.2217V70.5422Z" fill="#9E7B2F"/>
<path d="M46.444 81.8756H31.7773V69.8756H46.444V81.8756ZM33.1107 80.5422H45.1107V71.2089H33.1107V80.5422Z" fill="#9E7B2F"/>
<path d="M32.4443 75.2089H45.7777V76.5423H32.4443V75.2089Z" fill="#9E7B2F"/>
<path d="M38.4443 70.5422H39.7777V81.2089H38.4443V70.5422Z" fill="#9E7B2F"/>
</svg>
