<svg width="72" height="72" viewBox="0 0 72 72" fill="none" xmlns="http://www.w3.org/2000/svg">
<path d="M34.9499 59.7749C35.3999 59.7749 35.8624 59.6749 36.3374 59.4749C36.8124 59.2749 37.1999 59.0249 37.4999 58.7249L60.5249 35.6999C61.3249 34.9 61.9499 34.0999 62.3999 33.2999C62.8499 32.5 63.0749 31.6 63.0749 30.6C63.0749 29.6 62.8499 28.625 62.3999 27.6749C61.9499 26.725 61.3249 25.85 60.5249 25.05L49.7249 14.25C48.9249 13.45 48.1249 12.8625 47.3249 12.4875C46.5249 12.1125 45.6249 11.925 44.6249 11.925C43.6249 11.925 42.7124 12.1125 41.8874 12.4875C41.0624 12.8625 40.2749 13.45 39.5249 14.25L36.3749 17.4L41.9249 22.95C42.4749 23.5 42.8874 24.125 43.1624 24.825C43.4374 25.525 43.5749 26.225 43.5749 26.9249C43.5749 28.3249 43.1249 29.475 42.2249 30.375C41.3249 31.275 40.1749 31.725 38.7749 31.725C38.0749 31.725 37.3874 31.625 36.7124 31.4249C36.0374 31.225 35.4249 30.85 34.8749 30.2999L29.0999 24.525L16.1999 37.4249C15.8499 37.775 15.5874 38.1749 15.4124 38.625C15.2374 39.0749 15.1499 39.525 15.1499 39.9749C15.1499 40.775 15.3999 41.4249 15.8999 41.9249C16.3999 42.4249 17.0499 42.6749 17.8499 42.6749C18.2999 42.6749 18.7624 42.5749 19.2374 42.375C19.7124 42.1749 20.0999 41.9249 20.3999 41.6249L29.6999 32.3249L31.1999 33.8249L21.8999 43.125C21.5499 43.4749 21.2874 43.875 21.1124 44.3249C20.9374 44.7749 20.8499 45.2249 20.8499 45.6749C20.8499 46.4249 21.1124 47.0625 21.6374 47.5874C22.1624 48.1124 22.7999 48.375 23.5499 48.375C23.9999 48.375 24.4624 48.2749 24.9374 48.0749C25.4124 47.875 25.7999 47.625 26.0999 47.3249L36.2999 37.125L37.7999 38.625L27.5999 48.8249C27.2999 49.125 27.0499 49.5124 26.8499 49.9874C26.6499 50.4624 26.5499 50.9249 26.5499 51.375C26.5499 52.125 26.8124 52.7624 27.3374 53.2874C27.8624 53.8125 28.4999 54.0749 29.2499 54.0749C29.6999 54.0749 30.1499 53.9874 30.5999 53.8125C31.0499 53.6374 31.4499 53.375 31.7999 53.0249L41.9999 42.8249L43.4999 44.3249L33.2999 54.5249C32.9499 54.8749 32.6874 55.2999 32.5124 55.7999C32.3374 56.2999 32.2499 56.7499 32.2499 57.1499C32.2499 57.9499 32.5249 58.5874 33.0749 59.0624C33.6249 59.5374 34.2499 59.7749 34.9499 59.7749ZM34.9499 61.8749C33.4999 61.8749 32.2749 61.3249 31.2749 60.2249C30.2749 59.1249 29.8999 57.7749 30.1499 56.1749C28.4499 56.2749 27.0374 55.8249 25.9124 54.8249C24.7874 53.8249 24.2999 52.375 24.4499 50.4749C22.5499 50.5749 21.0749 50.0999 20.0249 49.0499C18.9749 48 18.5499 46.5749 18.7499 44.7749C17.1499 44.875 15.7999 44.5124 14.6999 43.6875C13.5999 42.8624 13.0499 41.6249 13.0499 39.9749C13.0499 39.275 13.1874 38.5625 13.4624 37.8375C13.7374 37.1124 14.1499 36.4749 14.6999 35.9249L29.0999 21.525L36.2249 28.65C36.5249 28.9499 36.8874 29.1999 37.3124 29.4C37.7374 29.6 38.2249 29.6999 38.7749 29.6999C39.4749 29.6999 40.0999 29.4499 40.6499 28.9499C41.1999 28.4499 41.4749 27.7999 41.4749 27C41.4749 26.4499 41.3749 25.9625 41.1749 25.5374C40.9749 25.1125 40.7249 24.75 40.4249 24.45L30.2249 14.25C29.4249 13.45 28.6124 12.8625 27.7874 12.4875C26.9624 12.1125 26.0499 11.925 25.0499 11.925C24.0499 11.925 23.1624 12.1125 22.3874 12.4875C21.6124 12.8625 20.8249 13.45 20.0249 14.25L11.3249 22.95C10.6249 23.65 10.0624 24.4875 9.6374 25.4625C9.2124 26.4375 8.9999 27.4499 8.9999 28.5C8.9999 29.1999 9.0749 29.8624 9.2249 30.4874C9.3749 31.1124 9.5999 31.6999 9.8999 32.25L8.2499 33.9C7.8499 33.1999 7.5249 32.375 7.2749 31.4249C7.0249 30.475 6.8999 29.5 6.8999 28.5C6.8999 27.15 7.1499 25.8624 7.6499 24.6375C8.1499 23.4125 8.8749 22.325 9.8249 21.375L18.4499 12.75C19.4499 11.75 20.4874 11.0125 21.5624 10.5375C22.6374 10.0625 23.8249 9.82495 25.1249 9.82495C26.4249 9.82495 27.5999 10.0625 28.6499 10.5375C29.6999 11.0125 30.7249 11.75 31.7249 12.75L34.8749 15.9L38.0249 12.75C39.0249 11.75 40.0499 11.0125 41.0999 10.5375C42.1499 10.0625 43.3249 9.82495 44.6249 9.82495C45.9249 9.82495 47.1124 10.0625 48.1874 10.5375C49.2624 11.0125 50.2999 11.75 51.2999 12.75L62.0249 23.475C63.0249 24.4749 63.7999 25.5875 64.3499 26.8125C64.8999 28.0375 65.1749 29.2999 65.1749 30.6C65.1749 31.9 64.8999 33.0749 64.3499 34.125C63.7999 35.1749 63.0249 36.1999 62.0249 37.1999L38.9999 60.2249C38.3999 60.8249 37.7624 61.2499 37.0874 61.4999C36.4124 61.7499 35.6999 61.8749 34.9499 61.8749Z" fill="#9E7B2F"/>
</svg>
