<svg width="72" height="72" viewBox="0 0 72 72" fill="none" xmlns="http://www.w3.org/2000/svg">
<path d="M35.9999 62.1C32.3894 62.1 28.9964 61.415 25.8209 60.045C22.6454 58.6745 19.8832 56.8148 17.5342 54.4658C15.1852 52.1168 13.3254 49.3545 11.9549 46.179C10.5849 43.0035 9.8999 39.6105 9.8999 36H11.9999C11.9999 42.4 14.1749 47.9 18.5249 52.5C22.8749 57.1 28.2499 59.6 34.6499 60L29.8499 55.2L31.3499 53.7L39.4499 61.8C38.8999 61.9 38.3249 61.975 37.7249 62.025C37.1249 62.075 36.5499 62.1 35.9999 62.1ZM38.6999 43.8V28.2H46.7999C47.6499 28.2 48.3624 28.4875 48.9374 29.0625C49.5124 29.6375 49.7999 30.35 49.7999 31.2V40.8C49.7999 41.65 49.5124 42.3625 48.9374 42.9375C48.3624 43.5125 47.6499 43.8 46.7999 43.8H38.6999ZM22.1999 43.8V41.7H31.1999V37.05H25.1999V34.95H31.1999V30.3H22.1999V28.2H31.4999C32.0099 28.2 32.4374 28.3725 32.7824 28.7175C33.1274 29.0625 33.2999 29.49 33.2999 30V42C33.2999 42.51 33.1274 42.9375 32.7824 43.2825C32.4374 43.6275 32.0099 43.8 31.4999 43.8H22.1999ZM40.7999 41.7H46.7999C47.0999 41.7 47.3249 41.625 47.4749 41.475C47.6249 41.325 47.6999 41.1 47.6999 40.8V31.2C47.6999 30.9 47.6249 30.675 47.4749 30.525C47.3249 30.375 47.0999 30.3 46.7999 30.3H40.7999V41.7ZM59.9999 36C59.9999 29.6 57.8249 24.1 53.4749 19.5C49.1249 14.9 43.7499 12.4 37.3499 12L42.1499 16.8L40.6499 18.3L32.5499 10.2C33.0999 10.1 33.6749 10.025 34.2749 9.97502C34.8749 9.92502 35.4499 9.90002 35.9999 9.90002C39.6104 9.90002 43.0034 10.5853 46.1789 11.9558C49.3544 13.3258 52.1166 15.1853 54.4657 17.5343C56.8147 19.8833 58.6742 22.6455 60.0442 25.821C61.4146 28.9965 62.0999 32.3895 62.0999 36H59.9999Z" fill="#9E7B2F"/>
</svg>
