<svg width="128" height="128" viewBox="0 0 128 128" fill="none" xmlns="http://www.w3.org/2000/svg">
<path d="M93.1119 106H34.8896V24.6667H93.1119V106ZM36.223 104.667H91.7785V26H36.223V104.667Z" fill="#C8C8C8"/>
<path d="M94.4446 26H33.5557V22H94.4446V26ZM34.889 24.6667H93.1112V23.3333H34.889V24.6667ZM69.1112 42.2667H58.889V30.2667H69.1112V42.2667ZM60.2223 40.9333H67.7779V31.6H60.2223V40.9333Z" fill="#C8C8C8"/>
<path d="M63.3341 31.2H64.6674V41.6H63.3341V31.2ZM69.1119 77.8222H58.8896V65.8222H69.1119V77.8222ZM60.223 76.4889H67.7785V67.1556H60.223V76.4889Z" fill="#C8C8C8"/>
<path d="M63.334 66.4889H64.6673V77.1556H63.334V66.4889ZM85.5562 42.2667H75.334V30.2667H85.5562V42.2667ZM76.6673 40.9333H84.2229V31.6H76.6673V40.9333Z" fill="#C8C8C8"/>
<path d="M79.7784 31.2H81.1118V41.6H79.7784V31.2ZM85.5562 77.8222H75.334V65.8222H85.5562V77.8222ZM76.6673 76.4889H84.2229V67.1556H76.6673V76.4889Z" fill="#C8C8C8"/>
<path d="M79.7784 66.4889H81.1118V77.1556H79.7784V66.4889ZM85.5562 95.6H75.334V83.6H85.5562V95.6ZM76.6673 94.2667H84.2229V84.9333H76.6673V94.2667Z" fill="#C8C8C8"/>
<path d="M79.7786 84.2667H81.112V94.9333H79.7786V84.2667ZM52.6675 42.2667H42.4453V30.2667H52.6675V42.2667ZM43.7786 40.9333H51.3342V31.6H43.7786V40.9333Z" fill="#C8C8C8"/>
<path d="M46.8896 31.2H48.223V41.6H46.8896V31.2Z" fill="#C8C8C8"/>
<path d="M69.1119 60.0444H58.8896V48.0444H69.1119V60.0444ZM60.223 58.7111H67.7785V49.3778H60.223V58.7111Z" fill="#9E7B2F"/>
<path d="M63.334 48.9778H64.6673V59.3778H63.334V48.9778ZM85.5562 60.0444H75.334V48.0444H85.5562V60.0444ZM76.6673 58.7111H84.2229V49.3778H76.6673V58.7111Z" fill="#9E7B2F"/>
<path d="M79.7783 48.9778H81.1117V59.3778H79.7783V48.9778Z" fill="#9E7B2F"/>
<path d="M52.6675 60.0444H42.4453V48.0444H52.6675V60.0444ZM43.7786 58.7111H51.3342V49.3778H43.7786V58.7111Z" fill="#9E7B2F"/>
<path d="M46.8896 48.9778H48.223V59.3778H46.8896V48.9778Z" fill="#9E7B2F"/>
<path d="M52.6675 77.8222H42.4453V65.8222H52.6675V77.8222ZM43.7786 76.4889H51.3342V67.1556H43.7786V76.4889Z" fill="#C8C8C8"/>
<path d="M46.8896 66.4889H48.223V77.1556H46.8896V66.4889Z" fill="#C8C8C8"/>
<path d="M52.6675 95.6H42.4453V83.6H52.6675V95.6ZM43.7786 94.2666H51.3342V84.9333H43.7786V94.2666Z" fill="#C8C8C8"/>
<path d="M46.8896 84.2667H48.223V94.9333H46.8896V84.2667Z" fill="#C8C8C8"/>
<path d="M75.3337 106H52.667V101.111H75.3337V106ZM54.0003 104.667H74.0003V102.444H54.0003V104.667Z" fill="#C8C8C8"/>
<path d="M70 102.444H58V83.3333H70V102.444ZM59.3333 101.111H68.6667V84.6666H59.3333V101.111Z" fill="#C8C8C8"/>
<path d="M61.1562 92.2222H63.2896V93.5556H61.1562V92.2222Z" fill="#C8C8C8"/>
<path d="M34.8896 45.8222H36.223V62.2667H34.8896V45.8222Z" fill="#9E7B2F"/>
<path d="M91.7783 45.8222H93.1117V62.2667H91.7783V45.8222Z" fill="#9E7B2F"/>
<path d="M102.178 53.3778H111.164V54.7111H102.178V53.3778Z" fill="#9E7B2F"/>
<path d="M105.102 56.5333L102.614 54.0444L105.102 51.5555H102.987L100.498 54.0444L102.987 56.5333H105.102Z" fill="#9E7B2F"/>
<path d="M16.8359 53.5111H25.8226V54.8445H16.8359V53.5111Z" fill="#9E7B2F"/>
<path d="M22.8984 51.6889L25.3873 54.1778L22.8984 56.6667H25.014L27.5029 54.1778L25.014 51.6889H22.8984Z" fill="#9E7B2F"/>
</svg>
