<svg width="128" height="128" viewBox="0 0 128 128" fill="none" xmlns="http://www.w3.org/2000/svg">
<path d="M93.1109 105.556H34.8887V24.2222H93.1109V105.556ZM36.222 104.222H91.7776V25.5556H36.222V104.222Z" fill="#C8C8C8"/>
<path d="M94.4446 25.5555H33.5557V21.5555H94.4446V25.5555ZM34.889 24.2222H93.1112V22.8889H34.889V24.2222Z" fill="#9E7B2F"/>
<path d="M93.7153 22.8889H34.2842L45.0131 7.35999H57.9997V17.8844H69.9997V7.35999H82.9864L93.7153 22.8889ZM36.8264 21.5555H91.1731L82.2842 8.69332H71.3331V19.2178H56.6664V8.69332H45.7153L36.8264 21.5555Z" fill="#9E7B2F"/>
<path d="M68.6663 16.5511H59.333V8.10666H68.6663V16.5511ZM60.6663 15.2178H67.333V9.43999H60.6663V15.2178Z" fill="#9E7B2F"/>
<path d="M71.3337 19.2178H56.667V6.48L64.0003 2.23111L71.3337 6.48V19.2178ZM58.0003 17.8844H70.0003V7.24444L64.0003 3.76889L58.0003 7.24444V17.8844Z" fill="#9E7B2F"/>
<path d="M69.1109 41.8222H58.8887V29.8222H69.1109V41.8222ZM60.222 40.4889H67.7776V31.1555H60.222V40.4889Z" fill="#C8C8C8"/>
<path d="M63.3331 30.7556H64.6664V41.1556H63.3331V30.7556ZM69.1109 59.6H58.8887V47.6H69.1109V59.6ZM60.222 58.2667H67.7776V48.9333H60.222V58.2667Z" fill="#C8C8C8"/>
<path d="M63.3331 48.5333H64.6664V58.9333H63.3331V48.5333ZM69.1109 77.3778H58.8887V65.3778H69.1109V77.3778ZM60.222 76.0444H67.7776V66.7111H60.222V76.0444Z" fill="#C8C8C8"/>
<path d="M63.333 66.0444H64.6663V76.7111H63.333V66.0444Z" fill="#C8C8C8"/>
<path d="M85.5552 41.8222H75.333V29.8222H85.5552V41.8222ZM76.6663 40.4889H84.2219V31.1555H76.6663V40.4889Z" fill="#C8C8C8"/>
<path d="M79.7775 30.7555H81.1108V41.1555H79.7775V30.7555ZM85.5552 59.6H75.333V47.6H85.5552V59.6ZM76.6663 58.2666H84.2219V48.9333H76.6663V58.2666Z" fill="#C8C8C8"/>
<path d="M79.7773 48.5333H81.1107V58.9333H79.7773V48.5333Z" fill="#C8C8C8"/>
<path d="M85.5552 77.3777H75.333V65.3777H85.5552V77.3777ZM76.6663 76.0444H84.2219V66.7111H76.6663V76.0444Z" fill="#C8C8C8"/>
<path d="M79.7773 66.0444H81.1107V76.7111H79.7773V66.0444Z" fill="#C8C8C8"/>
<path d="M85.5552 95.1555H75.333V83.1555H85.5552V95.1555ZM76.6663 93.8222H84.2219V84.4889H76.6663V93.8222Z" fill="#C8C8C8"/>
<path d="M79.7773 83.8222H81.1107V94.4889H79.7773V83.8222Z" fill="#C8C8C8"/>
<path d="M52.6666 41.8222H42.4443V29.8222H52.6666V41.8222ZM43.7777 40.4889H51.3332V31.1555H43.7777V40.4889Z" fill="#C8C8C8"/>
<path d="M46.8888 30.7555H48.2221V41.1555H46.8888V30.7555ZM52.6666 59.6H42.4443V47.6H52.6666V59.6ZM43.7777 58.2666H51.3332V48.9333H43.7777V58.2666Z" fill="#C8C8C8"/>
<path d="M46.8887 48.5333H48.222V58.9333H46.8887V48.5333Z" fill="#C8C8C8"/>
<path d="M52.6666 77.3777H42.4443V65.3777H52.6666V77.3777ZM43.7777 76.0444H51.3332V66.7111H43.7777V76.0444Z" fill="#C8C8C8"/>
<path d="M46.8887 66.0444H48.222V76.7111H46.8887V66.0444Z" fill="#C8C8C8"/>
<path d="M52.6666 95.1555H42.4443V83.1555H52.6666V95.1555ZM43.7777 93.8222H51.3332V84.4889H43.7777V93.8222Z" fill="#C8C8C8"/>
<path d="M46.8887 83.8222H48.222V94.4889H46.8887V83.8222Z" fill="#C8C8C8"/>
<path d="M75.3337 105.556H52.667V100.667H75.3337V105.556ZM54.0003 104.222H74.0003V102H54.0003V104.222Z" fill="#C8C8C8"/>
<path d="M70 102H58V82.8889H70V102ZM59.3333 100.667H68.6667V84.2222H59.3333V100.667Z" fill="#C8C8C8"/>
<path d="M61.1553 91.7778H63.2886V93.1111H61.1553V91.7778Z" fill="#C8C8C8"/>
<path d="M102.835 13.28H111.822V14.6133H102.835V13.28Z" fill="#9E7B2F"/>
<path d="M105.76 16.4267L103.271 13.9467L105.76 11.4578H103.653L101.164 13.9467L103.653 16.4267H105.76Z" fill="#9E7B2F"/>
<path d="M16.1689 13.28H25.1556V14.6133H16.1689V13.28Z" fill="#9E7B2F"/>
<path d="M22.2402 11.4578L24.7291 13.9467L22.2402 16.4267H24.3469L26.8358 13.9467L24.3469 11.4578H22.2402Z" fill="#9E7B2F"/>
</svg>
