<svg width="128" height="128" viewBox="0 0 128 128" fill="none" xmlns="http://www.w3.org/2000/svg">
<path d="M93.1109 105.556H34.8887V24.2222H93.1109V105.556ZM36.222 104.222H91.7776V25.5556H36.222V104.222Z" fill="#C8C8C8"/>
<path d="M94.4446 25.5556H33.5557V21.5556H94.4446V25.5556ZM34.889 24.2223H93.1112V22.8889H34.889V24.2223Z" fill="#9E7B2F"/>
<path d="M69.1109 41.8223H58.8887V29.8223H69.1109V41.8223ZM60.222 40.4889H67.7776V31.1556H60.222V40.4889Z" fill="#C8C8C8"/>
<path d="M63.3331 30.7556H64.6664V41.1556H63.3331V30.7556ZM69.1109 59.6H58.8887V47.6H69.1109V59.6ZM60.222 58.2667H67.7776V48.9333H60.222V58.2667Z" fill="#C8C8C8"/>
<path d="M63.3331 48.5334H64.6664V58.9334H63.3331V48.5334ZM69.1109 77.3778H58.8887V65.3778H69.1109V77.3778ZM60.222 76.0445H67.7776V66.7112H60.222V76.0445Z" fill="#C8C8C8"/>
<path d="M63.333 66.0445H64.6663V76.7112H63.333V66.0445ZM85.5552 41.8223H75.333V29.8223H85.5552V41.8223ZM76.6663 40.4889H84.2219V31.1556H76.6663V40.4889Z" fill="#C8C8C8"/>
<path d="M79.7775 30.7556H81.1108V41.1556H79.7775V30.7556ZM85.5552 59.6H75.333V47.6H85.5552V59.6ZM76.6663 58.2667H84.2219V48.9333H76.6663V58.2667Z" fill="#C8C8C8"/>
<path d="M79.7773 48.5334H81.1107V58.9334H79.7773V48.5334Z" fill="#C8C8C8"/>
<path d="M85.5552 77.3778H75.333V65.3778H85.5552V77.3778ZM76.6663 76.0445H84.2219V66.7111H76.6663V76.0445Z" fill="#C8C8C8"/>
<path d="M79.7773 66.0445H81.1107V76.7112H79.7773V66.0445Z" fill="#C8C8C8"/>
<path d="M85.5552 95.1556H75.333V83.1556H85.5552V95.1556ZM76.6663 93.8222H84.2219V84.4889H76.6663V93.8222Z" fill="#C8C8C8"/>
<path d="M79.7773 83.8223H81.1107V94.4889H79.7773V83.8223Z" fill="#C8C8C8"/>
<path d="M52.6666 41.8223H42.4443V29.8223H52.6666V41.8223ZM43.7777 40.4889H51.3332V31.1556H43.7777V40.4889Z" fill="#C8C8C8"/>
<path d="M46.8888 30.7556H48.2221V41.1556H46.8888V30.7556ZM52.6666 59.6001H42.4443V47.6001H52.6666V59.6001ZM43.7777 58.2667H51.3332V48.9334H43.7777V58.2667Z" fill="#C8C8C8"/>
<path d="M46.8887 48.5334H48.222V58.9334H46.8887V48.5334Z" fill="#C8C8C8"/>
<path d="M52.6666 77.3778H42.4443V65.3778H52.6666V77.3778ZM43.7777 76.0445H51.3332V66.7111H43.7777V76.0445Z" fill="#C8C8C8"/>
<path d="M46.8887 66.0445H48.222V76.7112H46.8887V66.0445Z" fill="#C8C8C8"/>
<path d="M52.6666 95.1556H42.4443V83.1556H52.6666V95.1556ZM43.7777 93.8222H51.3332V84.4889H43.7777V93.8222Z" fill="#C8C8C8"/>
<path d="M46.8887 83.8223H48.222V94.4889H46.8887V83.8223Z" fill="#C8C8C8"/>
<path d="M75.3337 105.556H52.667V100.667H75.3337V105.556ZM54.0003 104.222H74.0003V102H54.0003V104.222Z" fill="#C8C8C8"/>
<path d="M70 102H58V82.8889H70V102ZM59.3333 100.667H68.6667V84.2222H59.3333V100.667Z" fill="#C8C8C8"/>
<path d="M61.1553 91.7778H63.2886V93.1112H61.1553V91.7778Z" fill="#C8C8C8"/>
<path d="M86 22.8889H42V9.5556H86V22.8889ZM43.3333 21.5556H84.6667V10.8889H43.3333V21.5556Z" fill="#9E7B2F"/>
<path d="M60.2222 22.8889H50V14.4445H60.2222V22.8889ZM51.3333 21.5556H58.8889V15.7778H51.3333V21.5556Z" fill="#9E7B2F"/>
<path d="M77.9996 22.8889H67.7773V14.4445H77.9996V22.8889ZM69.1107 21.5556H76.6662V15.7778H69.1107V21.5556Z" fill="#9E7B2F"/>
<path d="M87.3337 10.8889H40.667V6.88892H87.3337V10.8889ZM42.0003 9.55558H86.0003V8.22225H42.0003V9.55558Z" fill="#9E7B2F"/>
<path d="M102.835 15.5555H111.822V16.8889H102.835V15.5555Z" fill="#9E7B2F"/>
<path d="M105.76 18.7111L103.271 16.2222L105.76 13.7333H103.653L101.164 16.2222L103.653 18.7111H105.76Z" fill="#9E7B2F"/>
<path d="M16.1689 15.5555H25.1556V16.8889H16.1689V15.5555Z" fill="#9E7B2F"/>
<path d="M22.2402 13.7333L24.7291 16.2222L22.2402 18.7111H24.3469L26.8358 16.2222L24.3469 13.7333H22.2402Z" fill="#9E7B2F"/>
</svg>
