<svg width="128" height="128" viewBox="0 0 128 128" fill="none" xmlns="http://www.w3.org/2000/svg">
<path d="M69.2886 105.556H55.1553V101.822H69.2886V105.556ZM56.4886 104.222H67.9553V103.156H56.4886V104.222Z" fill="#C8C8C8"/>
<path d="M91.3335 105.556H33.1113V24.2222H91.3335V105.556ZM34.4447 104.222H90.0002V25.5556H34.4447V104.222Z" fill="#C8C8C8"/>
<path d="M66.4884 103.156H57.9551V84.9333H66.4884V103.156ZM59.2884 101.822H65.1551V86.2667H59.2884V101.822Z" fill="#C8C8C8"/>
<path d="M60.0973 93.3778H61.5196V94.7111H60.0973V93.3778ZM92.6662 25.5555H31.7773V21.5555H92.6662V25.5555ZM33.1107 24.2222H91.3329V22.8889H33.1107V24.2222ZM66.0885 41.2889H58.3551V29.5555H66.0885V41.2889ZM59.6885 39.9555H64.7551V30.8889H59.6885V39.9555ZM76.4885 41.2889H68.7551V29.5555H76.4885V41.2889ZM70.0885 39.9555H75.1551V30.8889H70.0885V39.9555ZM86.8885 41.2889H79.1551V29.5555H86.8885V41.2889ZM80.4885 39.9555H85.5551V30.8889H80.4885V39.9555ZM55.6885 41.2889H47.9551V29.5555H55.6885V41.2889ZM49.2885 39.9555H54.3551V30.8889H49.2885V39.9555ZM45.2885 41.2889H37.5551V29.5555H45.2885V41.2889ZM38.8885 39.9555H43.9551V30.8889H38.8885V39.9555ZM66.0885 60.4H58.3551V48.6667H66.0885V60.4ZM59.6885 59.0667H64.7551V50H59.6885V59.0667ZM76.4885 60.4H68.7551V48.6667H76.4885V60.4ZM70.0885 59.0667H75.1551V50H70.0885V59.0667ZM86.8885 60.4H79.1551V48.6667H86.8885V60.4ZM80.4885 59.0667H85.5551V50H80.4885V59.0667ZM55.6885 60.4H47.9551V48.6667H55.6885V60.4ZM49.2885 59.0667H54.3551V50H49.2885V59.0667ZM45.2885 60.4H37.5551V48.6667H45.2885V60.4ZM38.8885 59.0667H43.9551V50H38.8885V59.0667ZM66.0885 78.6222H58.3551V66.8889H66.0885V78.6222ZM59.6885 77.2889H64.7551V68.2222H59.6885V77.2889ZM76.4885 78.6222H68.7551V66.8889H76.4885V78.6222ZM70.0885 77.2889H75.1551V68.2222H70.0885V77.2889ZM86.8885 78.6222H79.1551V66.8889H86.8885V78.6222ZM80.4885 77.2889H85.5551V68.2222H80.4885V77.2889ZM55.6885 78.6222H47.9551V66.8889H55.6885V78.6222ZM49.2885 77.2889H54.3551V68.2222H49.2885V77.2889ZM45.2885 78.6222H37.5551V66.8889H45.2885V78.6222ZM38.8885 77.2889H43.9551V68.2222H38.8885V77.2889ZM76.4885 96.8444H68.7551V85.1111H76.4885V96.8444ZM70.0885 95.5111H75.1551V86.4444H70.0885V95.5111ZM86.8885 96.8444H79.1551V85.1111H86.8885V96.8444ZM80.4885 95.5111H85.5551V86.4444H80.4885V95.5111ZM55.6885 96.8444H47.9551V85.1111H55.6885V96.8444ZM49.2885 95.5111H54.3551V86.4444H49.2885V95.5111ZM45.2885 96.8444H37.5551V85.1111H45.2885V96.8444ZM38.8885 95.5111H43.9551V86.4444H38.8885V95.5111Z" fill="#C8C8C8"/>
<path d="M36.7559 39.9556H46.0892V41.2889H36.7559V39.9556ZM57.5559 39.9556H66.8892V41.2889H57.5559V39.9556ZM47.1559 39.9556H56.4892V41.2889H47.1559V39.9556Z" fill="#C8C8C8"/>
<path d="M67.9551 39.9556H77.2884V41.2889H67.9551V39.9556Z" fill="#C8C8C8"/>
<path d="M78.3555 39.9556H87.6888V41.2889H78.3555V39.9556Z" fill="#C8C8C8"/>
<path d="M36.7559 59.0667H46.0892V60.4H36.7559V59.0667ZM57.5559 59.0667H66.8892V60.4H57.5559V59.0667ZM47.1559 59.0667H56.4892V60.4H47.1559V59.0667ZM67.9559 59.0667H77.2892V60.4H67.9559V59.0667ZM78.3559 59.0667H87.6892V60.4H78.3559V59.0667Z" fill="#C8C8C8"/>
<path d="M36.7559 77.2889H46.0892V78.6222H36.7559V77.2889ZM57.5559 77.2889H66.8892V78.6222H57.5559V77.2889ZM47.1559 77.2889H56.4892V78.6222H47.1559V77.2889ZM67.9559 77.2889H77.2892V78.6222H67.9559V77.2889ZM78.3559 77.2889H87.6892V78.6222H78.3559V77.2889Z" fill="#C8C8C8"/>
<path d="M36.7559 95.5111H46.0892V96.8444H36.7559V95.5111ZM47.1559 95.5111H56.4892V96.8444H47.1559V95.5111ZM67.9559 95.5111H77.2892V96.8444H67.9559V95.5111ZM78.3559 95.5111H87.6892V96.8444H78.3559V95.5111Z" fill="#C8C8C8"/>
<path d="M33.1104 25.0756H34.4437V44.8089H33.1104V25.0756Z" fill="#9E7B2F"/>
<path d="M46.6662 25.7422H31.7773V21.7422H46.6662V23.0756H33.1107V24.4089H46.6662V25.7422ZM45.2885 41.4756H37.5551V29.7422H45.2885V41.4756ZM38.8885 40.1423H43.9551V31.0756H38.8885V40.1423Z" fill="#9E7B2F"/>
<path d="M36.7549 40.1423H46.0882V41.4756H36.7549V40.1423Z" fill="#9E7B2F"/>
<path d="M15.0576 34.4089H24.0443V35.7423H15.0576V34.4089Z" fill="#9E7B2F"/>
<path d="M21.1201 32.5956L23.609 35.0756L21.1201 37.5645H23.2357L25.7246 35.0756L23.2357 32.5956H21.1201Z" fill="#9E7B2F"/>
<path d="M40.6221 3.6889H41.9554V12.6756H40.6221V3.6889Z" fill="#9E7B2F"/>
<path d="M43.7776 9.76001L41.2887 12.2489L38.7998 9.76001V11.8756L41.2887 14.3645L43.7776 11.8756V9.76001Z" fill="#9E7B2F"/>
</svg>
