<svg width="128" height="128" viewBox="0 0 128 128" fill="none" xmlns="http://www.w3.org/2000/svg">
<path d="M84.4615 106H26.2393V24.6667H84.4615V106ZM27.5726 104.667H83.1281V26H27.5726V104.667Z" fill="#C8C8C8"/>
<path d="M85.7951 26H24.9062V22H85.7951V26ZM26.2396 24.6667H84.4618V23.3333H26.2396V24.6667ZM60.4618 42.2667H50.2396V30.2667H60.4618V42.2667ZM51.5729 40.9333H59.1285V31.6H51.5729V40.9333Z" fill="#C8C8C8"/>
<path d="M54.6837 31.2H56.017V41.6H54.6837V31.2ZM60.4615 60.0445H50.2393V48.0445H60.4615V60.0445ZM51.5726 58.7111H59.1281V49.3778H51.5726V58.7111Z" fill="#C8C8C8"/>
<path d="M54.6837 48.9778H56.017V59.3778H54.6837V48.9778ZM60.4615 77.8222H50.2393V65.8222H60.4615V77.8222ZM51.5726 76.4889H59.1281V67.1556H51.5726V76.4889Z" fill="#C8C8C8"/>
<path d="M54.6836 66.4889H56.0169V77.1556H54.6836V66.4889Z" fill="#C8C8C8"/>
<path d="M76.9058 42.2667H66.6836V30.2667H76.9058V42.2667ZM68.0169 40.9333H75.5725V31.6H68.0169V40.9333Z" fill="#C8C8C8"/>
<path d="M71.1279 31.2H72.4613V41.6H71.1279V31.2Z" fill="#C8C8C8"/>
<path d="M76.9058 60.0444H66.6836V48.0444H76.9058V60.0444ZM68.0169 58.7111H75.5725V49.3778H68.0169V58.7111Z" fill="#C8C8C8"/>
<path d="M71.1279 48.9778H72.4613V59.3778H71.1279V48.9778Z" fill="#C8C8C8"/>
<path d="M76.9058 77.8222H66.6836V65.8222H76.9058V77.8222ZM68.0169 76.4889H75.5725V67.1555H68.0169V76.4889Z" fill="#C8C8C8"/>
<path d="M71.1279 66.4889H72.4613V77.1556H71.1279V66.4889Z" fill="#C8C8C8"/>
<path d="M76.9058 95.6H66.6836V83.6H76.9058V95.6ZM68.0169 94.2666H75.5725V84.9333H68.0169V94.2666Z" fill="#9E7B2F"/>
<path d="M71.1279 84.2667H72.4613V94.9333H71.1279V84.2667Z" fill="#9E7B2F"/>
<path d="M44.0171 42.2667H33.7949V30.2667H44.0171V42.2667ZM35.1283 40.9333H42.6838V31.6H35.1283V40.9333Z" fill="#C8C8C8"/>
<path d="M38.2394 31.2H39.5727V41.6H38.2394V31.2ZM44.0171 60.0445H33.7949V48.0445H44.0171V60.0445ZM35.1283 58.7111H42.6838V49.3778H35.1283V58.7111Z" fill="#C8C8C8"/>
<path d="M38.2393 48.9778H39.5726V59.3778H38.2393V48.9778Z" fill="#C8C8C8"/>
<path d="M44.0171 77.8222H33.7949V65.8222H44.0171V77.8222ZM35.1283 76.4889H42.6838V67.1555H35.1283V76.4889Z" fill="#C8C8C8"/>
<path d="M38.2393 66.4889H39.5726V77.1556H38.2393V66.4889Z" fill="#C8C8C8"/>
<path d="M63.7952 106H30.4619V102H63.7952V106ZM31.7952 104.667H62.4619V103.333H31.7952V104.667Z" fill="#9E7B2F"/>
<path d="M60.4616 103.333H33.7949V83.3333H60.4616V103.333ZM35.1283 102H59.1283V84.6666H35.1283V102Z" fill="#9E7B2F"/>
<path d="M46.4619 84H47.7952V102.667H46.4619V84Z" fill="#9E7B2F"/>
<path d="M84.4615 105.911H26.2393V80.3555H27.5726V104.578H83.1281V80.3555H84.4615V105.911Z" fill="#9E7B2F"/>
<path d="M97.7334 79.4222C97.2979 75.6445 92.8535 72.8356 88.0357 72.9956C83.7779 73.1289 80.0268 75.5467 79.2712 78.8178C78.7468 78.9511 75.6801 79.7778 74.2401 82.1778C72.5334 85.0311 74.5868 87.6178 74.8001 87.8756C73.5379 91.3511 74.9335 94.6045 77.9823 95.9111C78.6135 96.1867 80.0179 96.6667 82.2135 96.5334H92.7912C93.8757 96.5867 96.009 96.5778 97.9912 95.6356C101.067 94.1689 102.48 91.0845 101.449 87.9022C101.742 87.4934 103.022 85.6178 102.125 83.3067C101.12 80.7378 98.2223 79.6089 97.7334 79.4222Z" fill="white"/>
<path d="M81.4396 97.2267C80.0708 97.2267 78.7819 96.9867 77.7063 96.5245C74.3641 95.0934 72.8974 91.6178 74.0441 87.9911C73.4219 87.1022 72.0085 84.5778 73.653 81.8311C74.9774 79.6178 77.5285 78.6311 78.7108 78.2667C79.7152 74.9334 83.5463 72.4622 87.9996 72.32C93.093 72.16 97.6085 75.0934 98.3285 78.9422C99.4485 79.4222 101.804 80.6756 102.729 83.0489C103.582 85.2445 102.737 87.0934 102.16 88C103.102 91.3778 101.564 94.6489 98.2574 96.2222C96.3019 97.1556 94.1774 97.2622 92.7374 97.1911H82.1952C81.9463 97.2178 81.6974 97.2267 81.4396 97.2267ZM88.4174 73.6534C88.293 73.6534 88.1774 73.6534 88.053 73.6623C84.0174 73.7867 80.5952 76.0178 79.9197 78.9689L79.8308 79.36L79.4397 79.4578C78.6663 79.6534 76.0441 80.4623 74.8085 82.5156C73.3508 84.9511 75.1108 87.1911 75.3152 87.44L75.5552 87.7334L75.4219 88.0889C74.3196 91.1378 75.4752 94.0978 78.2396 95.2889C78.9952 95.6089 80.2841 95.9734 82.1685 95.8578H92.7819C94.0974 95.9289 95.9908 95.8311 97.6974 95.0223C100.471 93.7067 101.724 90.9156 100.809 88.0978L100.702 87.7778L100.897 87.5023C101.315 86.9245 102.204 85.3778 101.493 83.5378C100.649 81.3689 98.2219 80.32 97.5019 80.0445L97.1196 79.9022L97.0752 79.4934C96.693 76.2222 92.853 73.6534 88.4174 73.6534Z" fill="#9E7B2F"/>
<path d="M87.3242 81.4489H88.6576V108.48H87.3242V81.4489Z" fill="#9E7B2F"/>
<path d="M87.4756 87.1718L91.8813 81.8528L92.9081 82.7033L88.5024 88.0223L87.4756 87.1718Z" fill="#9E7B2F"/>
<path d="M81.8857 86.5396L82.9272 85.707L88.5108 92.6917L87.4694 93.5243L81.8857 86.5396Z" fill="#9E7B2F"/>
<path d="M82.3555 108.919L87.8657 107.825L88.1253 109.133L82.6151 110.227L82.3555 108.919Z" fill="#9E7B2F"/>
<path d="M87.8506 109.132L88.1103 107.824L93.6205 108.919L93.3607 110.226L87.8506 109.132Z" fill="#9E7B2F"/>
<path d="M111.066 91.7155H120.053V93.0488H111.066V91.7155Z" fill="#9E7B2F"/>
<path d="M113.991 94.8622L111.502 92.3733L113.991 89.8933H111.876L109.387 92.3733L111.876 94.8622H113.991Z" fill="#9E7B2F"/>
<path d="M7.94629 91.84H16.933V93.1734H7.94629V91.84Z" fill="#9E7B2F"/>
<path d="M14.0088 90.0267L16.4977 92.5067L14.0088 94.9956H16.1243L18.6132 92.5156L16.1243 90.0267H14.0088Z" fill="#9E7B2F"/>
</svg>
