<svg width="128" height="128" viewBox="0 0 128 128" fill="none" xmlns="http://www.w3.org/2000/svg">
<path d="M26.4444 52.0445H18V40.9333H26.4444V52.0445ZM19.3333 50.7111H25.1111V42.2667H19.3333V50.7111Z" fill="#C8C8C8"/>
<path d="M18.666 45.8222H25.7771V47.1556H18.666V45.8222Z" fill="#C8C8C8"/>
<path d="M21.5547 41.6H22.888V51.3778H21.5547V41.6ZM40.6658 52.0445H32.2214V40.9333H40.6658V52.0445ZM33.5547 50.7111H39.3325V42.2667H33.5547V50.7111Z" fill="#C8C8C8"/>
<path d="M32.8887 45.8222H39.9998V47.1556H32.8887V45.8222Z" fill="#C8C8C8"/>
<path d="M35.7778 41.6H37.1111V51.3778H35.7778V41.6ZM26.4444 68.0445H18V56.9333H26.4444V68.0445ZM19.3333 66.7111H25.1111V58.2667H19.3333V66.7111Z" fill="#C8C8C8"/>
<path d="M18.666 61.8222H25.7771V63.1556H18.666V61.8222Z" fill="#C8C8C8"/>
<path d="M21.5547 57.6H22.888V67.3778H21.5547V57.6ZM40.6658 68.0445H32.2214V56.9333H40.6658V68.0445ZM33.5547 66.7111H39.3325V58.2667H33.5547V66.7111Z" fill="#C8C8C8"/>
<path d="M32.8887 61.8222H39.9998V63.1556H32.8887V61.8222Z" fill="#C8C8C8"/>
<path d="M35.7778 57.6H37.1111V67.3778H35.7778V57.6ZM26.4444 88.0445H18V72.9333H26.4444V88.0445ZM19.3333 86.7111H25.1111V74.2667H19.3333V86.7111ZM40.6667 84.0445H32.2222V72.9333H40.6667V84.0445ZM33.5556 82.7111H39.3333V74.2667H33.5556V82.7111Z" fill="#C8C8C8"/>
<path d="M32.8887 77.8222H39.9998V79.1556H32.8887V77.8222Z" fill="#C8C8C8"/>
<path d="M35.7777 73.6H37.111V83.3778H35.7777V73.6ZM20.4443 79.8222H21.8666V81.1556H20.4443V79.8222ZM61.111 57.3778H52.6666V46.2667H61.111V57.3778ZM53.9999 56.0444H59.7777V47.6H53.9999V56.0444Z" fill="#C8C8C8"/>
<path d="M53.333 51.1556H60.4441V52.4889H53.333V51.1556Z" fill="#C8C8C8"/>
<path d="M56.2217 46.9333H57.555V56.7111H56.2217V46.9333ZM75.3328 57.3778H66.8883V46.2667H75.3328V57.3778ZM68.2217 56.0444H73.9995V47.6H68.2217V56.0444Z" fill="#C8C8C8"/>
<path d="M67.5547 51.1556H74.6658V52.4889H67.5547V51.1556Z" fill="#C8C8C8"/>
<path d="M70.4438 46.9333H71.7771V56.7111H70.4438V46.9333ZM61.1105 73.3778H52.666V62.2667H61.1105V73.3778ZM53.9993 72.0445H59.7771V63.6H53.9993V72.0445Z" fill="#C8C8C8"/>
<path d="M53.333 67.1556H60.4441V68.4889H53.333V67.1556Z" fill="#C8C8C8"/>
<path d="M56.2217 62.9334H57.555V72.7111H56.2217V62.9334ZM75.3328 73.3778H66.8883V62.2667H75.3328V73.3778ZM68.2217 72.0445H73.9995V63.6H68.2217V72.0445Z" fill="#C8C8C8"/>
<path d="M67.5547 67.1556H74.6658V68.4889H67.5547V67.1556Z" fill="#C8C8C8"/>
<path d="M70.4438 62.9333H71.7771V72.7111H70.4438V62.9333ZM61.1105 93.3778H52.666V78.2667H61.1105V93.3778ZM53.9993 92.0445H59.7771V79.6H53.9993V92.0445ZM75.3327 89.3778H66.8882V78.2667H75.3327V89.3778ZM68.2216 88.0445H73.9993V79.6H68.2216V88.0445Z" fill="#C8C8C8"/>
<path d="M67.5547 83.1556H74.6658V84.4889H67.5547V83.1556Z" fill="#C8C8C8"/>
<path d="M70.4437 78.9333H71.777V88.7111H70.4437V78.9333ZM55.1104 85.1556H56.5326V86.4889H55.1104V85.1556Z" fill="#C8C8C8"/>
<path d="M49.1102 34.4445H9.55469V22.4445H49.1102V34.4445ZM10.888 33.1111H47.7769V23.7778H10.888V33.1111Z" fill="#C8C8C8"/>
<path d="M49.1102 37.1111H9.55469V33.1111H49.1102V37.1111ZM10.888 35.7778H47.7769V34.4444H10.888V35.7778Z" fill="#C8C8C8"/>
<path d="M118.444 47.7778H80.666V43.7778H118.444V47.7778ZM81.9993 46.4445H117.11V45.1111H81.9993V46.4445Z" fill="#9E7B2F"/>
<path d="M95.7775 62.7111H87.333V51.6H95.7775V62.7111ZM88.6663 61.3778H94.4441V52.9333H88.6663V61.3778Z" fill="#9E7B2F"/>
<path d="M88 56.4889H95.1111V57.8222H88V56.4889Z" fill="#9E7B2F"/>
<path d="M90.8887 52.2667H92.222V62.0444H90.8887V52.2667Z" fill="#9E7B2F"/>
<path d="M109.999 62.7111H101.555V51.6H109.999V62.7111ZM102.888 61.3778H108.666V52.9333H102.888V61.3778Z" fill="#9E7B2F"/>
<path d="M102.222 56.4889H109.333V57.8222H102.222V56.4889Z" fill="#9E7B2F"/>
<path d="M105.11 52.2667H106.444V62.0444H105.11V52.2667Z" fill="#9E7B2F"/>
<path d="M95.7775 78.7111H87.333V67.6H95.7775V78.7111ZM88.6663 77.3778H94.4441V68.9333H88.6663V77.3778Z" fill="#9E7B2F"/>
<path d="M88 72.4889H95.1111V73.8222H88V72.4889Z" fill="#9E7B2F"/>
<path d="M90.8887 68.2667H92.222V78.0444H90.8887V68.2667Z" fill="#9E7B2F"/>
<path d="M109.999 78.7111H101.555V67.6H109.999V78.7111ZM102.888 77.3778H108.666V68.9333H102.888V77.3778Z" fill="#9E7B2F"/>
<path d="M102.222 72.4889H109.333V73.8222H102.222V72.4889Z" fill="#9E7B2F"/>
<path d="M105.11 68.2667H106.444V78.0444H105.11V68.2667Z" fill="#9E7B2F"/>
<path d="M95.7775 98.7111H87.333V83.6H95.7775V98.7111ZM88.6663 97.3778H94.4441V84.9334H88.6663V97.3778Z" fill="#9E7B2F"/>
<path d="M109.999 94.7111H101.555V83.6H109.999V94.7111ZM102.888 93.3778H108.666V84.9334H102.888V93.3778Z" fill="#9E7B2F"/>
<path d="M102.222 88.489H109.333V89.8223H102.222V88.489Z" fill="#9E7B2F"/>
<path d="M105.11 84.2667H106.444V94.0445H105.11V84.2667Z" fill="#9E7B2F"/>
<path d="M89.7773 90.4889H91.1996V91.8222H89.7773V90.4889Z" fill="#9E7B2F"/>
<path d="M116.666 104.142H115.333V47.7778H81.9993V99.3156H80.666V46.4445H116.666V104.142Z" fill="#9E7B2F"/>
<path d="M98.7643 101.6H97.431V98.7111H85.431V99.8578H84.0977V97.3778H98.7643V101.6Z" fill="#9E7B2F"/>
<path d="M47.333 93.5734H45.9997V37.1111H12.6663V88.7467H11.333V35.7778H47.333V93.5734Z" fill="#C8C8C8"/>
<path d="M64.0973 96.2667H62.764V93.3778H50.764V94.1333H49.4307V92.0444H64.0973V96.2667Z" fill="#C8C8C8"/>
<path d="M29.4303 90.8622H28.097V88.0445H16.097V89.1467H14.7637V86.7111H29.4303V90.8622Z" fill="#C8C8C8"/>
<path d="M123.493 105.556C103.617 103.778 83.4218 100.382 63.8841 97.1022C44.3729 93.8311 24.2041 90.4356 4.38184 88.6667L4.49739 87.3422C24.3729 89.12 44.5685 92.5156 64.1063 95.7956C83.6174 99.0667 103.786 102.462 123.609 104.231L123.493 105.556Z" fill="#C8C8C8"/>
<path d="M83.7778 42.4445H46V38.4445H83.7778V42.4445ZM47.3333 41.1111H82.4444V39.7778H47.3333V41.1111Z" fill="#C8C8C8"/>
<path d="M83.7778 39.7778H46V35.7778H47.7778V27.7778H83.7778V39.7778ZM47.3333 38.4445H82.4444V29.1111H49.1111V37.1111H47.3333V38.4445Z" fill="#C8C8C8"/>
<path d="M118.444 45.1111H80.666V41.1111H82.4438V33.1111H118.444V45.1111ZM81.9993 43.7778H117.11V34.4444H83.7771V42.4444H81.9993V43.7778Z" fill="#9E7B2F"/>
<path d="M98.7549 14.3822H100.088V23.3689H98.7549V14.3822Z" fill="#9E7B2F"/>
<path d="M101.91 20.4533L99.4215 22.9422L96.9326 20.4533V22.56L99.4215 25.0489L101.91 22.56V20.4533Z" fill="#9E7B2F"/>
</svg>
