<svg width="128" height="128" viewBox="0 0 128 128" fill="none" xmlns="http://www.w3.org/2000/svg">
<path d="M37.0934 41.2356H30.4268V37.2356H37.0934V41.2356ZM31.7601 39.9023H35.7601V38.5689H31.7601V39.9023ZM61.0934 90.7645H38.4268V85.8756H61.0934V90.7645ZM39.7601 89.4312H59.7601V87.2089H39.7601V89.4312Z" fill="#9E7B2F"/>
<path d="M55.7598 87.2089H43.7598V68.0978H55.7598V87.2089ZM45.0931 85.8756H54.4264V69.4311H45.0931V85.8756Z" fill="#9E7B2F"/>
<path d="M46.9152 76.9867H49.0485V78.32H46.9152V76.9867ZM55.7597 64.0978H43.7597V63.4311C43.7597 60.1245 46.453 57.4311 49.7597 57.4311C53.0663 57.4311 55.7597 60.1245 55.7597 63.4311V64.0978ZM45.1463 62.7645H54.3819C54.053 60.5067 52.1063 58.7645 49.7597 58.7645C47.413 58.7645 45.4663 60.5067 45.1463 62.7645ZM36.6485 45.4311H30.8708V39.9111H36.6485V45.4311ZM32.2041 44.0978H35.3152V41.2445H32.2041V44.0978ZM36.2041 64.0978H12.2041V60.0978H36.2041V64.0978ZM13.5374 62.7645H34.8708V61.4311H13.5374V62.7645Z" fill="#9E7B2F"/>
<path d="M36.2038 90.7645H13.5371V62.7645H36.2038V90.7645ZM14.8704 89.4311H34.8704V64.0978H14.8704V89.4311Z" fill="#9E7B2F"/>
<path d="M32.2038 81.8755H17.5371V69.8755H32.2038V81.8755ZM18.8704 80.5422H30.8704V71.2089H18.8704V80.5422Z" fill="#9E7B2F"/>
<path d="M18.2041 75.2089H31.5374V76.5423H18.2041V75.2089Z" fill="#9E7B2F"/>
<path d="M24.2041 70.5422H25.5374V81.2089H24.2041V70.5422Z" fill="#9E7B2F"/>
<path d="M97.5729 41.2356H90.9062V37.2356H97.5729V41.2356ZM92.2396 39.9023H96.2396V38.5689H92.2396V39.9023ZM89.5729 90.7645H66.9062V85.8756H89.5729V90.7645ZM68.2396 89.4312H88.2396V87.2089H68.2396V89.4312Z" fill="#C8C8C8"/>
<path d="M84.2393 87.2089H72.2393V68.0978H84.2393V87.2089ZM73.5726 85.8756H82.9059V69.4311H73.5726V85.8756Z" fill="#C8C8C8"/>
<path d="M75.3948 76.9867H77.5282V78.32H75.3948V76.9867ZM84.2393 64.0978H72.2393V63.4311C72.2393 60.1245 74.9326 57.4311 78.2393 57.4311C81.5459 57.4311 84.2393 60.1245 84.2393 63.4311V64.0978ZM73.617 62.7645H82.8526C82.5237 60.5067 80.577 58.7645 78.2304 58.7645C75.8837 58.7645 73.9459 60.5067 73.617 62.7645ZM97.1281 45.4311H91.3504V39.9111H97.1281V45.4311ZM92.6837 44.0978H95.7948V41.2445H92.6837V44.0978ZM115.795 64.0978H91.7948V60.0978H115.795V64.0978ZM93.1281 62.7645H114.461V61.4311H93.1281V62.7645Z" fill="#C8C8C8"/>
<path d="M114.462 90.7645H91.7949V62.7645H114.462V90.7645ZM93.1283 89.4311H113.128V64.0978H93.1283V89.4311Z" fill="#C8C8C8"/>
<path d="M93.1284 90.7645H63.3506V60.1689L78.2395 50.1778L93.1284 60.1689V90.7645ZM64.6839 89.4311H91.795V60.88L78.2395 51.7867L64.6839 60.88V89.4311ZM110.462 81.8756H95.795V69.8756H110.462V81.8756ZM97.1284 80.5422H109.128V71.2089H97.1284V80.5422Z" fill="#C8C8C8"/>
<path d="M96.4619 75.2089H109.795V76.5423H96.4619V75.2089Z" fill="#C8C8C8"/>
<path d="M102.462 70.5422H103.795V81.2089H102.462V70.5422Z" fill="#C8C8C8"/>
<path d="M115.599 61.4311H91.7949V60.88L78.2393 51.7867L63.9993 61.3422L63.626 61.0667L64.0082 60.5244L63.6438 59.9733L78.2393 50.1778L93.0126 60.0978H112.879L101.493 45.4311H63.9993V44.0978H102.15L115.599 61.4311Z" fill="#C8C8C8"/>
<path d="M64.6489 90.7645H34.8711V60.1689L49.76 50.1778L64.6489 60.1689V90.7645ZM36.2044 89.4311H63.3155V60.88L49.76 51.7867L36.2044 60.88V89.4311Z" fill="#9E7B2F"/>
<path d="M36.2039 61.4311H12.3994L25.8483 44.0978H63.9994V45.4311H26.5061L15.1283 60.0978H34.9861L49.7594 50.1778L64.355 59.9733L63.9905 60.5244L64.3905 61.0578L64.0172 61.3333L63.6172 61.0844L49.7594 51.7867L36.2039 60.88V61.4311Z" fill="#9E7B2F"/>
<path d="M46.8887 19.8845H48.222V28.8711H46.8887V19.8845Z" fill="#9E7B2F"/>
<path d="M50.0441 25.9556L47.5552 28.4445L45.0752 25.9556V28.0622L47.5552 30.5511L50.0441 28.0622V25.9556Z" fill="#9E7B2F"/>
</svg>
