<svg width="210" height="210" viewBox="0 0 210 210" fill="none" xmlns="http://www.w3.org/2000/svg">
<g clip-path="url(#clip0_2006_21)">
<path d="M14.5762 148.008L13.7147 148.594C13.6821 149.359 13.8915 150.158 14.2501 150.979C15.1339 153.003 17.6562 154.38 20.0168 153.349C22.3774 152.318 23.0809 149.532 22.1971 147.508C21.6207 146.189 20.5264 145.322 19.3265 144.973L19.9128 143.478C21.5258 144.013 22.9396 145.211 23.6633 146.868C24.9698 149.859 23.663 153.503 20.6572 154.815C17.6515 156.128 14.0904 154.611 12.7839 151.62C12.2203 150.329 12.0177 148.986 12.2385 147.493L14.0126 146.718L14.5762 148.008Z" fill="black"/>
<path d="M18.7401 140.411L18.6008 139.885C18.5271 139.607 17.9907 139.269 17.2382 139.303L9.38185 139.762L9.51809 140.901L8.28077 141.229L6.06007 132.846L16.036 130.203L15.7492 129.121L19.4611 128.137L19.8299 129.529L17.5509 130.298L19.7224 138.496L22.0833 138.036L22.4521 139.428L18.7401 140.411ZM18.0887 137.952L16.4457 131.75L7.86178 134.024L8.97213 138.215L16.8244 137.741C17.2666 137.723 17.7065 137.821 18.0887 137.952Z" fill="black"/>
<path d="M14.6088 124.469L13.6752 117.168L15.0242 116.995L16.1607 125.883L4.49571 127.375L3.42006 118.963L4.68972 118.801L5.56242 125.625L9.32379 125.144L8.61345 119.59L9.88311 119.427L10.5935 124.982L14.6088 124.469Z" fill="black"/>
<path d="M14.1866 114.377L12.7468 114.357L12.7616 113.269C12.7653 112.998 12.4498 112.673 11.716 112.503L4.02615 110.83L3.85064 111.964L2.57076 111.946L2.68927 103.275L14.4482 103.436L14.4263 105.035L4.10727 104.894L4.04802 109.23L11.7381 110.887C13.2538 111.212 14.3792 111.995 14.3615 113.291L14.1866 114.377Z" fill="black"/>
<path d="M11.3446 97.7588L14.3719 99.2078L14.1228 100.788L3.05433 95.4801L3.65227 91.6869L15.8169 90.041L15.5678 91.6215L12.2415 92.069L11.3446 97.7588ZM4.65864 94.5505L9.98946 97.1078L10.7518 92.2715L4.89283 93.0649L4.65864 94.5505Z" fill="black"/>
<path d="M9.94021 83.8425L11.8674 77.4048L7.08508 75.9732L7.54393 74.4404L18.81 77.813L18.3511 79.3457L13.2469 77.8178L11.3197 84.2555L16.4239 85.7835L15.9651 87.3163L4.69905 83.9437L5.1579 82.4109L9.94021 83.8425Z" fill="black"/>
<path d="M12.4602 65.3492C11.3607 67.6611 12.4579 70.3089 14.4375 71.2502C16.7639 72.3565 19.329 71.0606 20.2773 69.0666C21.3904 66.7258 20.2719 64.0855 18.2923 63.1441C15.9226 62.0172 13.3878 63.3985 12.4602 65.3492ZM11.0152 64.662C12.4238 61.6999 16.0318 60.2975 18.9795 61.6992C21.9416 63.1078 23.1308 66.7916 21.7222 69.7537C20.3205 72.7014 16.7125 74.1038 13.7504 72.6952C10.8027 71.2934 9.61346 67.6097 11.0152 64.662Z" fill="black"/>
<path d="M25.2137 45.9186L24.2741 45.4684C23.5965 45.825 23.0111 46.4077 22.4817 47.1305C21.1771 48.9119 21.2546 51.7848 23.3328 53.3068C25.4111 54.8289 28.1734 54.0358 29.478 52.2545C30.3289 51.0927 30.5276 49.7112 30.2258 48.4985L31.8135 48.2533C32.162 49.9166 31.8372 51.7412 30.7689 53.1999C28.8403 55.8332 25.0336 56.5357 22.3874 54.5977C19.7412 52.6597 19.2623 48.8184 21.1909 46.1851C22.0228 45.0492 23.082 44.1987 24.4837 43.6387L26.0456 44.7826L25.2137 45.9186Z" fill="black"/>
<path d="M29.6823 35.0448L30.8486 33.9495L33.6417 36.9235C34.5508 37.8916 36.2456 37.99 37.202 37.0918L40.2227 34.2549L35.6771 29.4148L36.8433 28.3195L44.8941 36.8917L43.7278 37.9871L41.2633 35.3629L38.2426 38.1998C36.5981 39.7442 34.0089 39.6517 32.4754 38.0189L29.6823 35.0448Z" fill="black"/>
<path d="M46.9177 30.602L47.9805 33.7855L46.6712 34.7051L42.7927 23.0584L45.9351 20.8514L55.5746 28.4518L54.2653 29.3714L51.6313 27.2914L46.9177 30.602ZM44.5761 23.5655L46.4436 29.1753L50.4502 26.3613L45.8069 22.7011L44.5761 23.5655Z" fill="black"/>
<path d="M61.648 14.7311L61.0166 13.9023C60.251 13.9111 59.4644 14.1632 58.6638 14.5655C56.691 15.5571 55.4513 18.1499 56.6081 20.4516C57.7649 22.7532 60.5853 23.3055 62.5582 22.3139C63.8448 21.6673 64.651 20.5279 64.9347 19.3109L66.4598 19.8157C66.0125 21.4553 64.8921 22.9316 63.2767 23.7435C60.3603 25.2093 56.6515 24.1007 55.1785 21.1701C53.7056 18.2394 55.029 14.6017 57.9453 13.1359C59.2034 12.5036 60.5337 12.229 62.0367 12.369L62.906 14.0988L61.648 14.7311Z" fill="black"/>
<path d="M71.859 8.44582L75.2159 18.2046L73.7029 18.7251L70.346 8.96627L66.4123 10.3194L65.9439 8.95772L75.3244 5.73098L75.7928 7.09267L71.859 8.44582Z" fill="black"/>
<path d="M87.3835 3.92038L84.6498 15.0784L81.7009 15.6715L79.3822 4.14238L80.9507 3.8269L83.0013 14.0227L83.3621 13.9502L86.0957 2.79214L89.0447 2.19905L91.3634 13.7282L89.7948 14.0437L87.7442 3.84782L87.3835 3.92038Z" fill="black"/>
<path d="M93.2124 1.17991L94.8092 1.07773L95.0697 5.1494C95.1545 6.47469 96.3988 7.62958 97.7082 7.54579L101.844 7.28114L101.42 0.654698L103.016 0.552517L103.767 12.2885L102.171 12.3907L101.941 8.79804L97.8052 9.06269C95.5538 9.20677 93.6161 7.48701 93.473 5.25158L93.2124 1.17991Z" fill="black"/>
<path d="M116.776 11.0038L116.661 12.4392L116.01 12.5477C115.149 12.4789 114.408 11.9061 114.052 10.9467L112.794 7.60393C112.666 7.19246 112.387 6.86522 112.02 6.83592L108.559 6.55948L108.135 11.8706L106.54 11.7432L107.477 0.020507L109.072 0.147899L108.674 5.12405L111.848 5.37756C112.167 5.40304 112.505 5.18928 112.696 4.80329L114.284 2.00882C114.788 1.11816 115.611 0.670206 116.472 0.738998L116.938 0.936707L116.823 2.37214L116.345 2.33392C116.089 2.31354 115.832 2.51772 115.625 2.90243L114.069 5.69945C113.958 5.8832 113.769 6.04463 113.636 6.09823C113.849 6.24366 114.174 6.60662 114.292 6.93707L115.518 10.2773C115.661 10.69 115.883 10.9324 116.138 10.9528L116.776 11.0038Z" fill="black"/>
<path d="M128.21 3.79402C125.719 3.20359 123.36 4.83139 122.854 6.9643C122.26 9.47085 124.065 11.7074 126.213 12.2166C128.735 12.8145 131.083 11.1674 131.588 9.03449C132.193 6.48123 130.311 4.29219 128.21 3.79402ZM128.579 2.23715C131.77 2.99364 133.898 6.22751 133.145 9.40351C132.388 12.5951 129.036 14.53 125.844 13.7735C122.668 13.0207 120.541 9.78685 121.297 6.59528C122.05 3.41928 125.403 1.48435 128.579 2.23715Z" fill="black"/>
<path d="M145.511 4.16421L146.616 4.58932C146.186 5.7093 144.791 6.08139 143.447 5.56436C142.103 5.04733 141.317 3.83651 141.748 2.71652L142.838 3.13589C142.636 3.79525 143.029 4.28923 143.82 4.59371C144.612 4.89818 145.214 4.80403 145.511 4.16421ZM145.457 8.58338L137.168 16.5377L134.361 15.4577L138.583 4.48189L140.077 5.05637L136.343 14.7629L136.686 14.895L144.975 6.94066L147.782 8.02067L143.56 18.9965L142.066 18.422L145.801 8.71551L145.457 8.58338Z" fill="black"/>
<path d="M151.012 20.1676L151.472 20.459C151.715 20.6133 152.338 20.497 152.867 19.9612L158.322 14.2888L157.449 13.5452L158.134 12.4643L165.457 17.1094L159.929 25.8241L160.875 26.424L158.818 29.6666L157.602 28.8953L158.753 26.7829L151.592 22.2406L150.171 24.1816L148.955 23.4102L151.012 20.1676ZM153.16 21.5303L158.578 24.967L163.335 17.4684L159.673 15.1458L154.232 20.8268C153.919 21.1402 153.53 21.3665 153.16 21.5303Z" fill="black"/>
<path d="M166.351 32.1L165.863 31.6861L164.959 30.5004L165.787 29.5241L167.386 30.8796C167.581 31.0451 168.005 31.0897 168.338 30.8692L169.535 30.1009L167.949 28.7558C167.094 28.0315 167.048 27.0477 167.409 26.2006L170.167 19.8548L171.388 20.8895L168.789 26.8249C168.665 27.1189 168.721 27.5229 168.953 27.7195L170.796 29.282L176.733 25.4216L177.954 26.4564L168.869 32.3467C168.082 32.8543 167.01 32.6587 166.351 32.1Z" fill="black"/>
<path d="M178.291 40.8769L186.256 34.3149L187.273 35.5498L179.308 42.1118L182.564 46.0635L190.529 39.5015L191.546 40.7364L182.47 48.214L172.906 36.606L181.983 29.1283L183 30.3632L175.035 36.9253L178.291 40.8769Z" fill="black"/>
<path d="M197.205 51.251L185.784 52.4896L184.22 49.9201L194.266 43.8059L195.097 45.1726L186.214 50.5798L186.405 50.8941L197.826 49.6555L199.39 52.225L189.344 58.3393L188.512 56.9725L197.396 51.5654L197.205 51.251Z" fill="black"/>
</g>
<defs>
<clipPath id="clip0_2006_21">
<rect width="210" height="210" fill="white"/>
</clipPath>
</defs>
</svg>
